<?xml version="1.0" standalone="no"?>
<!DOCTYPE svg PUBLIC "-//W3C//DTD SVG 20010904//EN"
"http://www.w3.org/TR/2001/REC-SVG-20010904/DTD/svg10.dtd">
<svg version="1.0" xmlns="http://www.w3.org/2000/svg"
width="880.000000pt" height="920.000000pt" viewBox="0 0 880.000000 920.000000"
preserveAspectRatio="xMidYMid meet">

<g transform="translate(0.000000,920.000000) scale(0.100000,-0.100000)"
fill="#ffffff" stroke="none">
<path d="M4249 8683 c-72 -60 -213 -174 -313 -255 -99 -82 -187 -148 -196
-148 -8 0 -186 56 -395 124 -236 76 -386 120 -395 116 -8 -5 -102 -161 -208
-348 -107 -187 -199 -348 -205 -356 -10 -14 -78 -20 -421 -40 -228 -14 -413
-29 -419 -35 -8 -8 -76 -427 -119 -735 l-12 -89 -91 -42 c-49 -23 -218 -99
-373 -171 -156 -71 -287 -136 -291 -144 -4 -8 31 -189 81 -410 76 -338 87
-398 76 -416 -7 -12 -134 -146 -283 -298 -219 -225 -270 -282 -270 -304 0 -18
74 -136 223 -360 124 -185 221 -340 218 -348 -3 -7 -75 -178 -161 -378 -85
-201 -155 -371 -155 -379 0 -7 39 -41 88 -75 92 -64 545 -384 575 -406 16 -12
16 -34 2 -427 -13 -351 -13 -416 -1 -424 7 -5 191 -54 407 -108 l395 -98 56
-162 c31 -89 91 -263 134 -387 42 -124 83 -230 90 -236 9 -7 119 3 386 37 205
26 389 50 408 53 35 5 38 3 100 -72 36 -42 72 -85 80 -94 8 -9 98 -115 200
-236 102 -121 192 -222 200 -225 9 -2 175 83 370 189 195 107 362 194 370 194
8 0 76 -33 150 -74 449 -246 576 -313 589 -309 9 3 124 133 256 289 132 157
251 298 265 314 l25 29 405 -53 c223 -29 412 -49 420 -45 9 4 71 172 149 397
l134 390 395 99 c217 54 401 103 408 108 12 8 12 74 -1 424 -8 228 -11 417 -7
420 29 20 198 140 312 221 74 53 186 132 248 175 61 44 112 85 112 91 0 7 -72
183 -161 392 l-161 380 230 343 c155 233 227 350 223 361 -3 9 -132 146 -286
304 -154 158 -281 292 -282 298 -2 6 37 189 85 406 52 229 86 401 81 410 -4 8
-175 92 -381 186 l-373 170 -61 408 c-33 224 -66 412 -71 417 -6 6 -183 21
-419 35 -224 13 -411 27 -415 31 -4 5 -73 125 -155 268 -218 384 -253 442
-266 447 -7 3 -184 -51 -393 -119 -209 -67 -387 -123 -396 -123 -8 0 -44 24
-80 53 -342 282 -564 457 -579 457 -10 0 -78 -48 -151 -107z m131 -236 l0
-293 -29 -10 c-22 -9 -34 -8 -57 4 -42 23 -129 20 -188 -6 -42 -19 -54 -21
-90 -11 -51 14 -114 6 -167 -22 -23 -11 -43 -19 -45 -17 -2 2 -11 38 -19 79
l-16 74 47 40 c72 61 558 455 561 455 2 0 3 -132 3 -293z m1430 28 c0 -8 -201
-529 -206 -534 -2 -3 -15 5 -27 18 -32 29 -80 42 -151 40 -47 -2 -60 1 -68 15
-25 45 -148 77 -218 57 -19 -6 -32 -2 -52 15 -15 12 -32 24 -38 26 -7 2 -6 23
2 67 l13 63 365 119 c375 121 380 123 380 114z m-2753 -277 l101 -262 -37 -18
c-20 -11 -48 -32 -63 -49 -22 -23 -36 -29 -70 -29 -58 -1 -115 -28 -160 -78
-30 -33 -45 -42 -71 -42 -19 0 -55 -11 -80 -24 l-47 -23 -31 49 c-17 26 -32
54 -33 61 -1 14 375 677 384 677 3 0 51 -118 107 -262z m1368 -97 c11 -5 29
-4 40 2 20 10 20 10 1 -12 -11 -11 -16 -21 -11 -21 4 0 2 -7 -5 -15 -9 -10 -9
-15 -1 -15 10 0 15 12 13 31 -1 3 5 6 13 6 8 0 12 -4 9 -9 -8 -12 10 -10 26 5
22 18 -28 -39 -90 -106 -56 -59 -96 -89 -139 -102 -16 -5 -21 -4 -17 4 4 6 2
11 -5 11 -7 0 -5 9 7 23 l19 22 -22 -19 c-12 -10 -21 -21 -20 -25 1 -3 -2 -7
-8 -8 -15 -3 -5 29 13 44 10 7 13 13 8 13 -5 0 -25 -12 -44 -27 -28 -21 -34
-23 -29 -9 5 14 3 17 -8 12 -21 -8 -19 8 6 35 15 17 19 19 15 7 -7 -25 1 -22
15 3 8 15 8 19 0 15 -6 -4 -11 -3 -11 2 0 13 81 104 88 98 3 -3 11 2 18 12 13
16 13 16 14 0 0 -25 14 -22 47 7 31 27 30 27 58 16z m-264 -11 c13 -8 25 -7
40 1 15 8 19 8 15 0 -4 -6 -2 -11 4 -11 7 0 10 -7 7 -14 -4 -11 -1 -13 11 -9
16 6 -13 -34 -91 -127 -31 -36 -102 -90 -120 -90 -6 0 -2 9 8 20 22 24 9 27
-17 3 -43 -38 -57 -14 -19 31 15 18 15 18 -5 8 -11 -6 -26 -18 -34 -26 -15
-18 -35 -22 -24 -4 5 8 2 9 -9 5 -26 -10 -21 2 34 83 54 81 99 123 99 95 0
-23 13 -18 45 15 33 34 30 33 56 20z m568 -3 c17 1 20 -1 11 -7 -8 -5 -15 -16
-16 -26 -2 -15 -1 -15 13 -1 12 11 19 12 28 4 22 -21 -159 -168 -224 -182
l-35 -7 30 26 29 27 -28 -17 c-15 -9 -39 -18 -52 -19 -21 -3 -23 -1 -12 16 7
11 20 22 30 25 10 3 16 8 13 12 -4 3 -25 -5 -48 -18 -33 -18 -40 -20 -35 -7 4
11 2 14 -9 10 -26 -10 -14 8 49 74 69 72 117 104 117 78 0 -20 10 -19 40 5 17
14 33 18 50 13 14 -3 36 -6 49 -6z m-769 -1 c0 -2 -8 -10 -17 -17 -16 -13 -17
-12 -4 4 13 16 21 21 21 13z m52 -10 c13 8 10 3 -68 -111 -61 -90 -119 -155
-138 -155 -6 0 -5 5 2 12 27 27 10 30 -18 3 -16 -16 -30 -25 -30 -20 0 4 -9 0
-20 -10 -31 -28 -24 -7 11 32 16 19 27 38 24 41 -4 4 -20 -9 -36 -28 -15 -19
-29 -29 -29 -21 0 10 -8 7 -25 -9 -14 -13 -28 -21 -31 -17 -3 3 16 47 42 98
62 120 132 202 117 137 -4 -20 0 -18 31 14 34 35 66 42 82 17 2 -4 19 1 37 11
18 11 33 15 35 10 2 -6 8 -7 14 -4z m943 -20 c14 -10 25 -11 38 -4 10 5 21 7
24 5 2 -3 -5 -8 -17 -12 -22 -7 -22 -7 4 -24 l26 -17 -86 -64 c-83 -61 -139
-89 -179 -89 -16 0 -15 3 8 15 16 9 27 18 24 21 -3 2 -16 -1 -29 -8 -12 -7
-34 -13 -48 -15 -25 -3 -24 -2 8 27 36 33 34 36 -9 14 -27 -14 -31 -14 -45 0
-14 14 -11 20 37 63 88 80 116 97 134 82 12 -10 21 -10 48 4 39 19 39 19 62 2z
m-1202 -25 c5 0 0 -13 -11 -28 -11 -16 -36 -60 -55 -99 -38 -76 -77 -128 -109
-145 -17 -9 -18 -8 -9 10 19 35 12 36 -14 1 -14 -19 -25 -30 -25 -25 0 4 -9 0
-20 -10 -28 -25 -25 -6 5 35 28 38 29 40 17 40 -5 0 -21 -17 -35 -37 -15 -21
-27 -31 -27 -24 0 10 -8 7 -25 -9 -14 -13 -27 -21 -30 -18 -6 5 36 110 70 178
23 44 83 112 70 78 -11 -29 14 -29 29 0 18 34 46 60 46 43 0 -7 5 -9 10 -6 6
4 17 2 24 -4 10 -9 17 -7 27 6 13 17 13 17 -6 3 -18 -13 -19 -13 -8 0 10 13
38 17 76 11z m1367 -16 c0 -19 17 -19 50 0 29 17 54 19 45 5 -3 -5 0 -10 8
-10 8 0 17 -7 21 -15 3 -8 12 -15 21 -15 8 0 15 -4 15 -10 0 -5 8 -10 18 -10
9 0 -5 -13 -33 -29 -27 -15 -76 -44 -108 -64 -54 -33 -131 -56 -144 -43 -3 3
7 10 22 16 15 6 25 13 22 16 -2 3 -20 -1 -38 -9 -44 -18 -65 -12 -41 12 9 10
24 21 32 25 15 6 -16 1 -59 -11 -16 -4 -22 -2 -17 5 3 6 1 12 -6 14 -20 7 154
136 185 138 4 0 7 -7 7 -15z m-1682 -55 c-7 -10 -14 -17 -17 -15 -4 4 18 35
25 35 2 0 -1 -9 -8 -20z m55 14 c12 -4 11 -12 -8 -47 -13 -23 -37 -77 -55
-119 -17 -42 -45 -91 -63 -107 -31 -31 -51 -35 -27 -6 7 9 11 18 8 21 -3 3
-15 -10 -27 -28 -11 -18 -21 -29 -21 -24 0 5 -9 1 -20 -9 -26 -23 -25 -11 1
32 12 19 19 36 16 39 -2 3 -15 -12 -28 -32 -13 -22 -25 -32 -27 -25 -3 9 -13
3 -28 -15 -21 -26 -23 -27 -24 -8 0 30 46 160 75 210 25 43 50 68 39 41 -13
-34 16 -24 37 12 22 39 48 49 75 29 6 -4 20 2 34 17 27 28 23 27 43 19z m1870
-30 c-5 -14 -2 -16 23 -10 59 16 72 16 84 1 7 -8 22 -15 34 -16 20 0 21 -1 1
-9 -19 -8 -19 -9 -1 -9 20 -1 20 -1 0 -16 -16 -13 -16 -14 -1 -9 9 3 17 1 17
-4 0 -17 -180 -103 -228 -109 -44 -6 -60 10 -20 20 12 4 20 9 16 12 -3 3 -18
1 -33 -5 -38 -15 -62 -6 -41 15 8 8 22 15 30 15 9 0 16 5 16 11 0 6 -8 8 -17
5 -58 -17 -70 -17 -70 -1 0 19 76 77 138 105 54 24 60 24 52 4z m-2173 -63
c-16 -32 -12 -36 10 -8 22 28 65 34 54 7 -3 -8 -23 -61 -44 -118 -45 -117 -64
-154 -92 -171 -17 -11 -18 -10 -9 8 6 11 11 26 11 33 -1 7 -10 -3 -20 -23 -18
-35 -55 -64 -44 -35 3 8 1 17 -4 20 -6 3 -13 -1 -16 -10 -9 -22 -34 4 -29 31
2 11 -5 2 -16 -20 -26 -54 -27 -23 -1 80 11 44 32 97 47 117 29 42 37 48 28
19 -12 -38 13 -30 30 10 21 45 46 64 63 47 7 -7 13 -4 21 11 7 12 14 21 17 21
2 0 0 -9 -6 -19z m2423 -22 c-5 -17 -2 -20 13 -16 44 12 88 19 82 12 -5 -5 1
-15 12 -22 11 -8 18 -19 14 -24 -3 -6 1 -9 9 -7 9 2 16 -1 16 -7 0 -5 7 -12
17 -15 12 -4 -9 -17 -67 -42 -100 -43 -166 -61 -205 -56 l-29 4 25 12 c24 12
23 12 -10 7 -46 -6 -69 7 -38 22 13 7 30 14 38 17 8 4 -7 4 -33 1 -30 -3 -46
-1 -42 5 3 6 1 10 -4 10 -24 0 -7 17 54 54 36 21 84 44 107 51 24 8 44 14 45
14 0 1 -1 -9 -4 -20z m-1226 -19 c46 -24 117 -26 172 -4 38 15 42 15 66 -5 38
-29 103 -36 166 -18 52 16 52 15 86 -10 39 -30 122 -42 171 -25 26 9 33 7 53
-14 36 -38 100 -58 165 -50 50 6 58 4 71 -14 24 -34 87 -60 146 -60 50 0 58
-3 94 -39 41 -41 91 -61 158 -61 34 -1 43 -6 60 -33 25 -39 96 -77 147 -77 33
0 40 -4 57 -37 25 -49 73 -80 142 -94 51 -10 57 -14 75 -52 23 -48 70 -83 130
-98 34 -9 43 -16 47 -39 9 -43 52 -86 112 -111 49 -20 56 -27 66 -61 12 -46
76 -112 124 -128 28 -9 35 -18 44 -55 13 -53 59 -109 111 -135 33 -17 38 -24
42 -64 6 -54 41 -104 92 -131 32 -17 36 -24 36 -58 0 -21 9 -55 20 -76 19 -38
72 -91 91 -91 5 0 9 -21 9 -47 0 -57 30 -123 73 -159 29 -24 32 -31 29 -75 -4
-55 14 -101 59 -147 26 -27 29 -35 23 -71 -9 -58 2 -103 40 -159 25 -38 31
-54 23 -67 -19 -34 -3 -123 32 -171 27 -38 30 -48 19 -61 -7 -9 -13 -41 -13
-73 0 -46 6 -67 30 -106 30 -49 30 -49 13 -84 -24 -47 -23 -121 2 -170 l20
-39 -20 -33 c-26 -43 -27 -130 -1 -180 l18 -37 -25 -35 c-30 -42 -40 -118 -22
-170 10 -31 9 -40 -3 -54 -42 -48 -60 -141 -38 -197 6 -15 0 -29 -25 -57 -37
-41 -49 -88 -41 -152 6 -39 3 -46 -25 -72 -42 -40 -58 -82 -58 -153 0 -55 -2
-61 -30 -81 -42 -30 -72 -94 -74 -155 -1 -46 -4 -52 -36 -70 -42 -24 -80 -94
-80 -147 0 -34 -4 -40 -40 -58 -45 -23 -86 -85 -96 -146 -5 -36 -11 -44 -49
-62 -46 -22 -87 -80 -99 -138 -6 -25 -14 -33 -46 -43 -48 -14 -97 -70 -113
-128 -8 -33 -16 -43 -32 -43 -40 0 -99 -44 -130 -97 -26 -45 -36 -53 -75 -63
-49 -13 -125 -82 -136 -124 -4 -19 -14 -25 -51 -30 -61 -8 -106 -37 -140 -91
-26 -42 -31 -45 -73 -45 -53 0 -96 -23 -136 -74 -25 -32 -34 -36 -73 -36 -55
0 -122 -31 -157 -73 -24 -28 -30 -30 -79 -28 -62 3 -107 -15 -153 -60 -27 -26
-33 -28 -58 -18 -45 17 -109 2 -159 -36 -38 -30 -48 -33 -70 -25 -55 21 -142
4 -187 -37 -15 -14 -24 -14 -57 -5 -60 18 -113 14 -166 -12 -46 -24 -50 -24
-79 -9 -43 22 -126 20 -173 -4 -38 -20 -38 -20 -64 0 -38 27 -108 33 -169 13
-49 -16 -51 -16 -80 6 -35 26 -132 36 -181 19 -29 -10 -35 -8 -65 19 -41 35
-92 46 -156 33 -44 -9 -50 -7 -69 13 -36 38 -84 56 -148 53 -55 -2 -61 0 -95
33 -41 40 -115 64 -163 54 -24 -5 -32 -1 -57 30 -36 45 -97 73 -158 74 -27 0
-48 4 -48 10 0 18 -65 83 -97 96 -18 8 -48 14 -66 14 -29 0 -37 5 -47 29 -23
56 -104 111 -164 111 -20 0 -29 9 -44 44 -23 50 -69 89 -129 106 -35 11 -44
19 -58 56 -20 52 -70 99 -123 115 -34 10 -40 16 -50 54 -15 57 -52 99 -107
122 -38 15 -45 22 -45 46 0 49 -37 106 -91 139 -27 17 -49 38 -49 47 0 61 -46
137 -103 171 -25 15 -29 25 -31 68 -4 58 -32 110 -81 148 -30 22 -33 29 -28
60 8 48 -21 116 -66 157 -33 29 -36 37 -29 63 12 43 -8 115 -45 159 -28 35
-31 44 -31 115 -1 71 -4 82 -34 123 -27 39 -31 49 -22 72 18 46 11 100 -19
159 -26 53 -27 59 -15 94 22 63 13 125 -26 181 -16 23 -16 26 3 59 26 44 28
142 4 189 -16 30 -16 33 8 75 30 53 33 125 6 184 -18 40 -18 40 5 68 13 15 27
39 30 54 4 15 11 29 15 33 5 3 1 35 -9 71 l-19 65 33 36 c39 42 51 93 36 155
-9 43 -9 46 18 69 40 33 64 101 57 162 -5 45 -4 50 24 70 40 30 69 91 69 147
0 42 4 50 43 85 45 39 67 88 67 150 0 29 6 37 36 54 43 23 82 86 90 148 5 36
11 47 29 51 55 14 100 73 113 149 6 35 12 42 40 49 45 12 99 70 115 124 11 40
19 48 50 59 62 21 85 42 114 104 25 54 31 60 66 65 46 8 107 61 131 114 16 36
22 40 62 45 53 6 109 45 131 93 14 28 22 34 47 34 49 1 110 34 152 84 34 40
43 46 78 46 53 0 118 33 151 76 24 31 29 34 65 28 53 -9 105 11 152 58 36 36
41 38 73 29 57 -15 132 11 177 62 15 17 22 18 49 8 50 -17 82 -13 145 18 53
28 61 29 101 18 51 -13 118 1 166 35 28 20 31 21 76 4 63 -22 99 -20 151 8 25
13 46 24 48 25 1 0 19 -8 39 -19z m-1411 -174 c-26 -109 -52 -172 -80 -195
-18 -15 -20 -8 -6 20 7 11 7 19 1 19 -5 0 -15 -16 -21 -36 -7 -19 -14 -33 -18
-30 -3 3 -11 -2 -19 -12 -13 -15 -14 -14 -10 13 5 27 4 28 -8 11 -8 -10 -18
-15 -24 -11 -6 3 -11 2 -11 -2 0 -5 -7 -18 -16 -29 -14 -18 -15 -15 -11 41 7
89 36 202 58 227 12 15 17 17 13 7 -3 -10 -1 -20 5 -24 6 -3 15 6 21 22 16 46
25 56 50 60 12 2 29 11 37 21 12 16 13 15 7 -3 -6 -18 -5 -18 16 3 39 41 44
13 16 -102z m2877 83 c-6 -21 0 -21 67 -3 8 2 24 -9 35 -26 11 -17 26 -30 34
-30 8 0 11 -6 7 -15 -3 -10 1 -15 12 -15 26 -1 -167 -70 -215 -77 -23 -3 -54
-2 -70 2 l-28 8 30 8 c29 8 29 8 -6 6 -20 -2 -41 3 -48 10 -10 11 -6 15 19 19
50 10 45 24 -6 17 -32 -4 -45 -3 -41 5 4 5 1 12 -5 15 -16 5 80 55 152 78 70
23 69 23 63 -2z m1189 -31 c6 -2 -38 -58 -98 -124 -60 -66 -144 -159 -187
-206 l-78 -87 -36 25 c-20 13 -52 29 -72 35 -29 9 -40 20 -57 57 -25 56 -84
101 -144 109 -35 5 -44 11 -60 42 -10 21 -37 50 -59 66 l-41 28 27 46 c14 25
30 48 34 51 8 6 751 -36 771 -42z m-1035 -14 c-3 -3 -12 -4 -19 -1 -8 3 -5 6
6 6 11 1 17 -2 13 -5z m-4233 -71 c29 -32 119 -131 200 -220 l146 -162 -35
-17 c-44 -21 -92 -77 -106 -125 -9 -27 -19 -39 -45 -48 -64 -23 -108 -79 -138
-173 -3 -9 -23 -26 -46 -38 l-40 -21 -56 43 c-50 38 -56 45 -51 72 2 17 29
192 58 389 30 196 55 357 57 357 2 0 27 -26 56 -57z m976 -93 c-21 -112 -47
-191 -69 -204 -8 -5 -8 0 -1 18 5 15 6 26 1 26 -5 0 -12 -14 -16 -30 -4 -17
-11 -28 -16 -24 -5 3 -9 -1 -9 -9 0 -8 -7 -20 -15 -27 -13 -11 -13 -7 0 36 18
61 10 71 -12 15 -9 -24 -19 -37 -23 -30 -5 6 -12 -1 -18 -20 -6 -17 -16 -31
-22 -31 -19 0 8 222 33 277 l11 25 9 -24 c9 -21 11 -19 26 27 10 28 23 51 29
51 7 1 18 2 25 3 8 0 19 11 26 24 11 22 11 22 5 -3 -6 -25 -6 -25 16 3 13 16
26 25 31 20 5 -5 0 -58 -11 -123z m3336 84 c-6 -15 0 -16 38 -11 39 6 46 3 62
-18 10 -14 28 -26 39 -26 13 -1 10 -4 -10 -9 -26 -7 -27 -8 -6 -9 16 -1 21 -5
17 -16 -3 -8 0 -15 7 -16 37 -3 -178 -49 -228 -49 -64 0 -116 18 -60 21 27 2
27 2 5 6 -14 2 -36 6 -49 9 l-24 5 27 15 c16 7 32 12 36 9 5 -3 12 0 16 6 5 9
-6 11 -40 7 -43 -5 -62 4 -33 15 6 3 3 6 -8 7 -20 1 -20 1 0 12 32 19 158 57
189 58 22 0 27 -4 22 -16z m-3544 -175 c-5 -104 -21 -189 -43 -228 -11 -20
-18 -28 -15 -19 3 10 1 20 -4 23 -6 4 -10 -5 -10 -19 0 -13 -6 -31 -13 -38 -7
-7 -19 -22 -26 -33 -11 -17 -11 -15 -6 18 3 21 9 45 12 53 3 8 1 14 -5 14 -6
0 -13 -18 -17 -41 -5 -27 -11 -39 -20 -35 -8 3 -16 -5 -19 -20 -4 -13 -11 -24
-16 -24 -6 0 -10 47 -10 118 0 94 4 125 19 157 15 32 20 35 20 18 1 -37 16
-26 28 20 9 34 17 43 35 44 12 1 24 7 27 14 2 8 5 8 11 -1 4 -7 12 0 20 20 21
50 35 31 32 -41z m3768 41 c-22 -13 -6 -23 40 -23 22 0 40 -4 40 -9 0 -12 21
-33 40 -41 10 -3 6 -6 -10 -7 l-25 -1 25 -10 c19 -8 21 -12 11 -19 -11 -6 -8
-9 10 -12 27 -4 -168 -38 -217 -38 -17 0 -46 5 -65 12 l-34 12 30 7 c27 6 26
7 -13 8 -26 1 -41 5 -37 11 3 6 0 10 -7 11 -7 1 5 7 27 14 l40 13 -42 1 c-35
1 -42 4 -40 21 1 14 12 23 37 30 19 5 51 13 70 18 47 13 140 15 120 2z m-3973
-264 c-6 -122 -19 -190 -38 -202 -7 -4 -9 1 -4 15 4 12 2 21 -4 21 -6 0 -11
-13 -11 -30 0 -16 -4 -30 -10 -30 -5 0 -10 -6 -10 -14 0 -8 -5 -18 -11 -22 -8
-5 -9 9 -4 47 8 60 -4 61 -15 2 -3 -21 -11 -37 -17 -36 -6 1 -14 -9 -18 -24
-13 -52 -27 -5 -32 104 -4 84 -2 116 10 143 9 20 16 28 16 18 1 -26 21 -22 21
5 0 33 11 67 20 62 4 -2 17 5 28 16 20 18 22 18 23 2 0 -10 7 -1 15 19 11 26
20 35 31 31 14 -5 15 -23 10 -127z m4183 94 c0 -17 7 -20 40 -20 22 0 40 -5
40 -11 0 -12 17 -31 45 -47 18 -11 17 -12 -10 -7 -26 5 -27 4 -8 -4 15 -7 21
-16 17 -26 -4 -9 0 -16 7 -17 26 -2 -116 -16 -184 -17 -44 -1 -81 5 -105 16
l-37 17 40 6 40 7 -35 2 c-19 1 -43 8 -53 15 -16 13 -16 14 8 20 14 4 30 4 35
1 6 -4 10 -2 10 3 0 5 -19 12 -42 16 -32 5 -39 9 -28 16 10 7 11 10 3 10 -7 0
-13 4 -13 9 0 13 85 28 163 30 61 1 67 -1 67 -19z m-4373 -243 c3 -46 2 -114
-2 -151 -6 -60 -8 -65 -21 -49 -12 16 -13 14 -14 -25 0 -24 -4 -41 -9 -37 -5
3 -12 -5 -14 -17 -2 -13 -5 2 -6 32 -2 41 -5 50 -11 35 -5 -11 -9 -33 -9 -48
-1 -16 -5 -25 -11 -22 -5 3 -12 -6 -16 -20 -14 -55 -31 -12 -49 128 -8 61 4
147 17 123 14 -25 28 -9 28 33 0 30 5 40 25 51 14 7 26 20 26 29 1 11 3 10 6
-3 4 -17 8 -14 19 14 21 50 35 26 41 -73z m4547 83 c24 0 26 -2 16 -15 -12
-15 0 -20 60 -27 14 -2 25 -7 26 -13 2 -23 17 -45 33 -46 12 0 12 -2 -4 -9
-11 -5 -14 -9 -6 -9 7 -1 11 -7 8 -15 -3 -8 -1 -16 6 -19 27 -9 -221 -6 -254
3 -47 13 -73 39 -32 33 22 -4 25 -2 13 6 -8 6 -23 11 -33 11 -10 0 -25 6 -33
14 -12 13 -9 15 28 18 l43 4 -42 8 c-32 7 -41 13 -40 27 1 16 7 19 32 14 22
-5 26 -3 15 4 -10 7 0 11 40 14 30 2 64 2 75 0 11 -1 33 -3 49 -3z m-4730
-184 c3 -12 10 -69 17 -128 12 -107 7 -172 -12 -184 -7 -4 -9 1 -4 15 4 12 2
21 -4 21 -6 0 -11 -15 -11 -32 0 -18 -5 -40 -10 -48 -6 -10 -10 -11 -10 -2 0
19 -30 14 -30 -5 0 -15 -2 -16 -10 -3 -8 12 -10 10 -10 -10 -1 -49 -16 -53
-30 -8 -7 24 -14 48 -16 53 -2 6 -1 -22 3 -62 3 -39 2 -84 -2 -100 l-8 -28 -7
25 c-5 19 -8 10 -14 -39 -7 -60 -18 -70 -29 -26 -4 18 -5 18 -6 -2 -1 -15 -6
-21 -15 -17 -8 3 -16 -4 -19 -18 -4 -14 -10 -19 -15 -13 -10 11 -47 148 -57
212 -6 38 -5 41 14 36 19 -5 20 -2 14 48 -3 30 -2 51 2 47 13 -13 35 12 36 41
l1 26 7 -25 c7 -25 8 -24 15 8 4 18 12 30 17 26 5 -3 9 0 9 7 0 30 19 -11 33
-71 l15 -65 -4 95 c-2 52 -2 89 2 83 12 -26 24 -12 24 26 0 52 8 71 31 71 14
0 19 8 20 28 l1 27 8 -30 c6 -23 8 -25 9 -8 3 50 35 71 45 29z m4886 5 c14 -3
25 -13 25 -21 0 -8 17 -19 40 -26 36 -10 40 -14 41 -45 0 -22 -5 -37 -15 -42
-10 -4 -5 -5 11 -2 15 3 30 1 33 -5 3 -5 0 -10 -7 -10 -8 -1 -6 -6 6 -15 17
-13 12 -14 -50 -9 -104 8 -184 24 -226 45 -48 24 -48 31 0 25 l37 -5 -35 12
c-57 20 -67 29 -42 38 12 5 30 6 40 2 9 -3 14 -3 11 0 -3 4 -23 13 -45 21 -21
8 -34 15 -27 15 7 1 10 8 7 16 -5 13 8 15 82 14 49 -1 100 -4 114 -8z m557
-179 c81 -38 235 -109 342 -157 l193 -89 -261 -130 -261 -131 -22 22 c-13 14
-23 38 -25 64 -6 64 -45 124 -108 165 -16 11 -25 26 -25 43 0 44 -49 130 -92
161 -21 16 -39 32 -40 36 0 4 23 27 53 51 38 31 60 42 76 38 11 -3 88 -36 170
-73z m-413 59 c4 -5 -3 -7 -14 -4 -23 6 -26 13 -6 13 8 0 17 -4 20 -9z m21
-83 c38 -10 41 -13 27 -24 -15 -11 -14 -14 13 -24 53 -21 58 -26 62 -50 2 -13
9 -28 16 -33 8 -6 7 -7 -4 -4 -9 3 -22 1 -30 -4 -10 -6 -7 -9 14 -9 26 0 40
-20 15 -20 -9 0 -8 -4 2 -10 43 -28 -159 6 -234 39 -23 10 -48 26 -56 36 -14
17 -14 18 8 6 13 -7 31 -11 40 -8 10 2 0 9 -25 17 -23 7 -40 16 -38 21 3 4 -1
10 -7 13 -7 3 6 4 30 2 47 -5 48 9 2 19 -30 7 -52 25 -29 25 8 0 7 5 -2 17
-13 15 -8 16 70 9 46 -4 103 -12 126 -18z m-5342 -298 c40 -160 49 -282 16
-207 -8 18 -9 16 -4 -13 3 -19 1 -48 -4 -65 -9 -32 -12 -29 -30 40 l-11 40 4
-47 c2 -27 0 -48 -5 -48 -5 0 -9 -11 -9 -25 0 -14 -4 -25 -10 -25 -14 0 -35
45 -64 141 -30 100 -33 124 -10 115 13 -5 14 1 9 38 -6 40 -4 48 19 71 15 15
29 40 33 56 3 16 9 26 14 23 5 -3 9 0 9 5 0 6 4 11 8 11 5 0 20 -50 35 -110z
m5437 88 c53 -10 119 -37 93 -38 -25 0 -12 -17 25 -32 31 -12 37 -20 39 -46 2
-27 -1 -32 -20 -33 -20 -1 -20 -1 3 -8 16 -5 25 -14 26 -29 1 -12 1 -22 0 -22
0 0 -52 14 -115 30 -72 19 -127 40 -148 56 -37 28 -39 43 -3 24 12 -6 24 -9
27 -6 4 3 -10 12 -29 20 -20 9 -38 22 -41 29 -4 12 1 13 31 6 49 -11 52 -4 9
17 -23 11 -35 23 -34 35 1 20 17 20 137 -3z m-5740 -346 c0 -31 -6 -43 -29
-60 -41 -30 -71 -98 -71 -161 0 -45 -5 -59 -31 -89 -42 -48 -59 -91 -59 -152
0 -31 -4 -50 -11 -50 -21 0 -148 40 -153 49 -6 9 -166 732 -166 749 0 7 117
-46 260 -118 l260 -130 0 -38z m5925 188 c3 -6 -1 -7 -9 -4 -18 7 -21 14 -7
14 6 0 13 -4 16 -10z m-150 -40 c3 -5 23 -10 43 -11 57 -1 137 -32 137 -53 0
-10 15 -26 34 -36 26 -13 35 -25 37 -49 3 -28 1 -31 -24 -32 l-27 -1 29 -7
c30 -6 49 -31 24 -31 -8 -1 -6 -6 6 -15 11 -8 18 -15 15 -15 -13 0 -208 69
-234 83 -35 17 -84 67 -67 67 6 0 14 -4 17 -10 3 -5 14 -10 23 -10 9 1 0 10
-21 21 -42 22 -40 44 4 35 39 -8 36 0 -8 23 -21 11 -32 20 -24 21 7 0 11 6 7
15 -6 17 19 21 29 5z m-5636 -26 c9 6 68 -174 76 -234 8 -55 8 -51 5 -75 -2
-15 -4 -13 -11 10 -7 26 -8 24 -5 -13 2 -23 1 -40 -4 -37 -4 2 -6 -9 -4 -26 6
-47 -14 -24 -22 26 -3 25 -11 45 -16 45 -5 0 -7 -8 -5 -17 3 -10 8 -31 12 -48
l6 -29 -22 19 -22 20 12 -23 c7 -13 11 -33 9 -45 -3 -20 -6 -19 -26 13 -20 31
-82 205 -82 230 0 5 7 7 16 3 13 -5 15 1 9 41 -7 42 -5 49 19 69 14 12 29 38
32 57 4 19 9 29 12 22 2 -7 7 -10 11 -8z m5916 -164 c3 -6 -1 -7 -9 -4 -18 7
-21 14 -7 14 6 0 13 -4 16 -10z m-171 -29 c3 -4 23 -11 43 -13 60 -8 145 -48
133 -63 -7 -8 2 -18 31 -34 35 -20 40 -27 38 -55 -2 -17 1 -37 5 -45 5 -8 3
-16 -5 -22 -11 -6 -10 -9 4 -15 9 -3 17 -10 17 -14 0 -9 -219 80 -255 104 -27
17 -42 43 -40 66 0 8 -4 18 -10 22 -16 12 24 9 46 -2 32 -18 21 -2 -18 25 -21
14 -32 25 -26 25 7 0 10 7 7 15 -7 16 21 22 30 6z m-5755 -326 l-1 -40 -13 35
c-7 19 -14 27 -14 18 -1 -9 3 -28 9 -42 5 -14 6 -26 1 -26 -4 0 -6 -12 -3 -26
9 -46 -15 -18 -28 33 -7 27 -14 43 -17 36 -2 -6 0 -28 6 -47 11 -41 1 -46 -24
-13 -16 22 -16 22 -2 -3 7 -14 17 -38 21 -54 13 -55 -21 -10 -74 96 -54 107
-59 128 -34 128 11 0 14 5 9 18 -16 41 -17 78 -1 91 9 7 16 21 17 30 0 12 2
11 9 -4 7 -15 9 -10 9 23 1 26 5 41 11 37 6 -3 10 0 10 7 1 7 25 -48 55 -122
35 -88 54 -149 54 -175z m6026 125 c3 -6 -1 -7 -9 -4 -18 7 -21 14 -7 14 6 0
13 -4 16 -10z m-162 -33 c-4 -6 0 -8 10 -4 9 3 47 -9 87 -29 57 -29 69 -39 60
-49 -9 -11 -4 -19 23 -37 27 -17 35 -29 33 -48 -1 -14 5 -34 13 -45 13 -16 13
-18 1 -9 -8 6 -26 11 -39 12 -26 1 -23 -8 5 -12 10 -2 20 -9 22 -16 3 -7 0
-10 -7 -6 -6 4 -11 2 -11 -3 0 -6 5 -11 10 -11 6 0 10 -5 10 -10 0 -10 -134
53 -201 95 -20 13 -47 39 -60 57 l-24 33 29 -18 c15 -10 30 -16 33 -14 2 3 -9
13 -26 23 -37 22 -49 54 -17 46 11 -3 27 -9 34 -15 7 -5 15 -7 18 -4 3 3 -10
16 -30 29 -20 13 -36 27 -36 31 0 5 5 5 11 1 7 -4 9 0 4 14 -6 20 -4 21 24 11
18 -6 28 -16 24 -22z m-5992 -183 c33 -67 59 -133 59 -145 l-1 -24 -15 25 -15
25 6 -25 c21 -85 9 -129 -15 -55 -6 19 -16 35 -21 35 -5 0 -2 -16 6 -36 18
-44 18 -47 3 -38 -7 5 -9 2 -6 -7 24 -64 17 -76 -20 -36 -28 30 -122 187 -122
204 0 7 7 13 15 13 11 0 11 7 -5 43 -11 23 -15 44 -10 45 6 2 10 10 10 17 0 7
7 15 14 18 11 4 13 16 9 43 -4 27 -3 35 5 30 8 -4 12 0 12 11 1 17 2 16 17 -2
8 -11 42 -75 74 -141z m6069 -55 c0 -6 6 -9 13 -6 16 6 120 -49 148 -79 21
-23 21 -24 3 -24 -15 -1 -12 -7 17 -33 27 -24 36 -39 34 -57 -2 -14 -4 -29 -4
-33 -1 -5 -7 -5 -13 -1 -10 6 -10 4 0 -7 6 -7 12 -19 12 -27 0 -8 -5 -10 -12
-5 -7 4 -5 -5 5 -20 15 -24 8 -21 -68 25 -88 54 -185 137 -185 159 0 8 6 6 18
-4 32 -29 37 -18 7 13 -16 17 -25 30 -19 30 5 0 2 5 -6 10 -23 15 2 12 33 -4
36 -20 34 -9 -5 25 -28 24 -30 28 -13 29 15 0 16 3 7 12 -19 19 -14 30 8 18
11 -6 20 -15 20 -21z m568 -181 c114 -117 236 -243 270 -279 l63 -67 -53 -6
c-75 -9 -479 -46 -500 -46 -15 0 -17 6 -11 45 6 48 -15 123 -42 145 -10 8 -12
29 -8 85 6 79 -2 111 -44 176 -21 31 -23 43 -16 84 8 45 11 49 48 61 79 24 72
29 293 -198z m-6653 -95 c8 -19 15 -47 15 -61 0 -25 -1 -25 -15 -6 -17 23 -20
11 -4 -18 10 -18 19 -88 12 -88 -1 0 -14 21 -27 48 -14 26 -25 39 -26 29 0
-10 7 -31 15 -47 18 -36 10 -38 -24 -7 -24 21 -24 21 2 -11 30 -37 38 -74 12
-52 -21 18 -104 137 -124 179 -12 26 -13 35 -4 38 9 3 7 15 -7 43 -22 43 -26
65 -10 55 10 -6 14 11 12 55 -2 25 -1 25 8 3 13 -31 17 -29 12 7 -2 17 1 37 8
45 11 13 22 0 71 -81 33 -52 66 -111 74 -131z m6268 -42 c33 -24 44 -38 37
-46 -7 -8 -1 -20 20 -40 22 -21 28 -34 25 -58 -2 -17 1 -38 8 -47 6 -8 1 -6
-12 5 l-24 20 12 -22 c14 -28 14 -36 -1 -27 -8 5 -9 2 -5 -9 3 -10 4 -17 2
-17 -17 0 -199 147 -215 173 -25 40 -26 55 -2 34 29 -27 38 -20 12 8 -29 31
-35 56 -12 48 10 -3 23 -13 29 -21 7 -9 15 -13 18 -11 2 3 -9 20 -25 38 -23
25 -27 35 -18 45 13 14 66 -12 151 -73z m51 63 c5 -14 4 -15 -9 -4 -17 14 -19
20 -6 20 5 0 12 -7 15 -16z m-6437 -154 c65 -92 91 -137 104 -184 l9 -31 -26
30 -26 30 21 -38 c24 -44 26 -51 9 -41 -10 6 -10 4 -2 -7 16 -20 25 -49 16
-49 -5 0 -19 18 -31 41 -26 46 -41 47 -17 0 18 -35 20 -45 6 -36 -15 9 -12 -8
6 -33 13 -19 13 -22 1 -22 -23 0 -177 184 -177 211 0 5 7 6 15 3 20 -8 19 2
-6 43 -18 29 -20 39 -10 60 6 14 9 35 6 47 -5 18 -4 18 10 -4 15 -24 16 -24
10 -2 -8 27 4 88 14 75 4 -4 34 -46 68 -93z m6353 -112 c57 -35 119 -87 103
-88 -20 0 -15 -13 18 -49 23 -26 27 -36 17 -42 -7 -5 -9 -9 -5 -9 4 0 3 -9 -3
-20 -8 -15 -7 -27 4 -49 13 -24 13 -30 2 -34 -13 -5 -117 72 -184 136 -48 45
-87 123 -42 82 27 -24 26 -7 -2 22 -36 39 -32 55 9 32 36 -20 36 -11 0 29 -13
13 -16 22 -8 22 8 0 10 8 6 23 -6 21 -6 21 17 -3 13 -14 43 -37 68 -52z
m-6967 -57 c51 -5 144 -15 207 -20 63 -6 138 -14 165 -17 l51 -5 -4 -69 c-2
-37 1 -84 7 -103 10 -29 9 -41 -3 -66 -21 -39 -21 -157 -1 -204 13 -31 13 -43
1 -89 -13 -50 -15 -53 -52 -60 -22 -4 -55 -7 -74 -7 -35 0 -36 0 -245 315
-115 174 -211 320 -213 325 -5 12 45 11 161 0z m564 -72 c66 -72 127 -159 138
-199 l8 -25 -21 25 c-28 33 -28 16 0 -23 12 -17 16 -27 7 -22 -11 7 -12 6 -3
-6 31 -41 19 -48 -17 -9 -26 30 -36 36 -28 20 6 -14 18 -32 26 -42 13 -14 12
-17 -2 -25 -14 -8 -14 -12 5 -35 28 -37 9 -44 -32 -11 -96 77 -198 194 -154
177 25 -9 25 23 0 58 -20 28 -23 39 -15 60 5 15 6 30 0 39 -15 23 -10 34 6 13
14 -18 14 -17 5 9 -13 36 -13 50 0 42 6 -4 7 1 3 11 -10 28 10 12 74 -57z
m6517 -195 c20 -30 20 -34 -1 -34 -14 0 -14 -3 4 -22 23 -26 50 -73 36 -65
-14 9 -32 -48 -21 -64 7 -11 8 -10 4 4 -3 11 -2 16 4 12 10 -6 3 -54 -10 -69
-10 -10 -162 134 -193 183 -27 44 -33 133 -7 123 8 -3 20 -13 27 -21 7 -9 12
-11 12 -6 1 6 -8 21 -19 35 -21 27 -26 45 -10 35 6 -3 10 3 10 15 0 18 11 12
74 -40 41 -34 82 -72 90 -86z m30 90 c3 -8 2 -12 -4 -9 -6 3 -10 10 -10 16 0
14 7 11 14 -7z m-6442 -298 c27 -36 50 -86 40 -86 -4 0 -13 9 -20 21 -7 12
-16 18 -19 15 -4 -3 6 -20 22 -36 16 -17 23 -30 17 -30 -9 0 -7 -9 5 -27 14
-23 9 -21 -25 12 -23 21 -42 34 -42 29 0 -6 11 -21 25 -34 24 -23 35 -47 15
-35 -16 10 -12 -7 7 -27 20 -23 3 -24 -39 -2 -21 11 -27 18 -19 24 9 5 8 9 -4
13 -9 4 -13 3 -10 -3 12 -20 -9 -9 -54 27 -48 39 -65 56 -81 85 -8 13 -6 15
10 11 28 -7 25 6 -10 42 -26 27 -29 36 -21 56 6 16 5 32 -2 45 -10 18 -9 18
13 -1 l23 -20 -17 26 c-11 18 -15 36 -10 53 6 25 8 24 89 -51 46 -41 94 -90
107 -107z m6381 -35 c27 -31 35 -47 28 -55 -8 -9 -3 -22 14 -46 26 -35 33 -56
15 -45 -5 3 -11 -2 -11 -12 -2 -24 -2 -25 7 -48 l7 -20 -17 20 c-16 19 -16 19
-6 -8 12 -35 13 -50 1 -43 -5 4 -11 2 -13 -3 -4 -11 -144 145 -174 194 -28 47
-32 144 -5 123 9 -7 21 -20 28 -28 21 -25 14 3 -7 30 -22 28 -26 45 -9 34 8
-5 10 1 7 20 -5 25 -2 23 46 -21 28 -27 68 -68 89 -92z m-6352 -230 c39 -44
47 -61 29 -61 -5 0 -10 5 -10 10 0 6 -5 10 -12 10 -6 0 1 -14 18 -32 16 -17
22 -27 14 -23 -10 5 -8 1 4 -13 30 -34 14 -35 -27 -1 -43 35 -49 28 -10 -13
16 -17 21 -28 13 -28 -9 0 -5 -9 10 -25 l23 -25 -46 16 c-26 9 -50 21 -54 27
-4 7 0 8 11 4 11 -4 15 -3 11 4 -4 6 -14 8 -22 5 -15 -6 -133 70 -133 85 0 4
5 11 11 15 7 4 -2 19 -25 40 -35 32 -38 49 -14 81 6 7 4 21 -7 36 -8 13 -13
32 -9 40 5 14 22 6 96 -46 50 -34 108 -82 129 -106z m-220 92 c13 -16 12 -17
-3 -4 -10 7 -18 15 -18 17 0 8 8 3 21 -13z m6539 -98 c21 -28 43 -64 49 -80
10 -27 10 -28 -3 -12 -24 31 -28 1 -5 -38 13 -22 18 -40 12 -43 -5 -4 -12 -15
-16 -25 -4 -10 -11 -16 -16 -13 -6 4 -5 -9 1 -30 7 -28 7 -39 -3 -45 -9 -5
-31 17 -71 69 -56 75 -70 101 -46 86 7 -4 8 -3 4 5 -4 6 -11 9 -16 6 -11 -7
-44 56 -54 100 l-7 30 26 -30 26 -30 -21 42 c-22 47 -12 65 20 33 23 -23 25
-16 5 20 -17 30 -19 44 -5 35 6 -3 10 4 10 16 0 22 2 21 36 -12 19 -18 53 -57
74 -84z m238 69 c35 -7 20 24 207 -417 69 -165 124 -301 121 -304 -2 -3 -120
28 -261 69 l-257 73 -1 77 c0 42 4 83 10 90 41 52 58 130 44 201 -10 47 -9 56
14 101 14 27 25 64 25 83 0 31 2 33 34 33 18 0 47 -3 64 -6z m-6536 -286 c21
-16 46 -44 55 -62 l16 -31 -22 19 c-11 11 -24 17 -27 14 -3 -3 6 -14 19 -24
13 -11 23 -22 23 -25 -1 -4 8 -16 18 -28 26 -29 4 -26 -32 4 -41 35 -52 31
-17 -5 32 -33 43 -70 21 -70 -23 0 -46 11 -41 20 3 5 0 12 -6 16 -8 4 -9 3 -5
-4 4 -7 4 -12 -1 -12 -14 0 -107 52 -135 75 -22 19 -24 24 -12 29 13 5 7 15
-27 47 -24 22 -38 37 -30 33 10 -5 11 -1 7 14 -4 11 -2 23 4 27 7 4 3 16 -10
35 -11 15 -17 35 -14 43 4 12 23 5 92 -34 47 -28 103 -64 124 -81z m6198 35
c45 -60 100 -145 100 -155 0 -4 -7 -5 -15 -2 -19 8 -19 0 1 -38 16 -31 12 -78
-7 -78 -6 0 -8 -9 -4 -22 5 -19 4 -20 -5 -8 -9 12 -11 9 -6 -17 3 -21 1 -33
-9 -36 -16 -7 -99 119 -89 135 4 7 2 8 -5 4 -14 -9 -71 108 -70 144 l0 25 11
-22 c6 -13 15 -23 20 -23 5 0 1 14 -7 30 -9 17 -13 35 -10 40 9 14 33 1 41
-22 3 -11 8 -17 10 -15 3 3 -2 22 -10 42 -19 44 -19 48 -6 40 6 -3 10 1 10 9
0 26 13 18 50 -31z m-6399 20 c13 -16 12 -17 -3 -4 -10 7 -18 15 -18 17 0 8 8
3 21 -13z m163 -244 c113 -62 150 -89 168 -124 11 -19 10 -19 -16 -1 -15 10
-30 15 -33 12 -3 -3 8 -13 26 -23 17 -10 31 -22 31 -27 0 -5 7 -18 17 -28 23
-26 4 -22 -40 8 -21 14 -41 23 -44 21 -3 -3 11 -16 31 -29 20 -13 34 -28 32
-34 -3 -6 1 -17 7 -23 36 -36 -122 16 -196 65 -30 20 -36 28 -27 39 8 10 3 18
-24 34 -28 18 -34 27 -31 49 1 15 -5 36 -13 47 -10 12 -11 15 -2 8 23 -20 31
-15 12 7 -16 19 -26 60 -14 60 2 0 55 -27 116 -61z m6249 -130 c33 -55 33 -63
5 -48 -19 10 -20 9 -13 -7 28 -69 28 -70 10 -98 -12 -18 -20 -23 -25 -15 -5 6
-5 -10 -2 -36 3 -33 2 -46 -6 -41 -6 3 -12 0 -15 -6 -2 -7 -10 6 -16 30 -7 23
-16 40 -20 38 -8 -5 -36 43 -33 57 1 4 -3 7 -10 7 -6 0 -9 3 -6 6 4 3 -7 30
-23 61 -18 33 -29 69 -28 92 1 36 1 36 11 9 5 -16 14 -28 19 -28 6 0 5 9 -1
21 -7 11 -9 27 -6 35 3 9 1 12 -4 9 -6 -3 -10 -2 -10 4 0 25 22 19 41 -11 22
-35 22 -33 3 40 -5 18 -3 21 10 16 11 -4 16 -1 16 11 0 17 45 -47 103 -146z
m-6365 -12 c6 -7 11 -40 11 -74 -1 -65 29 -140 70 -177 17 -15 21 -31 21 -75
0 -44 7 -67 30 -109 17 -28 39 -58 50 -64 11 -7 20 -16 20 -20 0 -5 -34 -25
-75 -45 -68 -34 -78 -36 -98 -24 -20 13 -176 123 -487 343 -69 49 -125 92
-125 95 0 7 530 161 556 162 9 1 21 -5 27 -12z m176 -97 c54 -21 112 -48 129
-59 39 -24 85 -71 69 -71 -6 0 -14 5 -17 10 -3 6 -14 10 -23 10 -10 0 0 -11
23 -25 22 -14 36 -25 31 -25 -5 0 1 -9 14 -20 29 -26 20 -25 -31 1 -53 26 -61
18 -13 -12 21 -12 32 -25 25 -27 -8 -3 -6 -8 6 -18 17 -12 16 -13 -10 -14 -58
0 -251 77 -218 88 20 7 11 22 -23 39 -31 14 -34 20 -33 54 1 28 -5 45 -23 64
-13 14 -18 25 -11 25 7 0 9 5 6 10 -9 14 -8 14 99 -30z m6114 -158 c9 -37 8
-41 -4 -31 -21 17 -24 9 -11 -38 9 -36 8 -45 -6 -61 -9 -10 -17 -25 -18 -33 0
-8 -4 -6 -9 6 -7 15 -9 10 -9 -23 -1 -26 -5 -41 -11 -37 -5 3 -10 -2 -10 -12
-1 -11 -7 -4 -16 16 -8 19 -12 41 -9 48 2 8 1 12 -4 9 -12 -8 -55 90 -46 105
5 7 4 10 -2 6 -13 -8 -33 59 -33 109 l1 39 14 -30 c16 -35 20 -19 5 20 -7 18
-7 32 1 43 10 16 10 16 5 0 -3 -12 -1 -15 10 -11 9 3 14 -2 14 -15 0 -12 5
-24 11 -28 12 -7 9 14 -7 69 -5 16 -2 18 15 12 16 -5 21 -2 21 12 0 28 88
-127 98 -175z m-154 -128 c46 -98 62 -170 31 -144 -18 15 -20 2 -5 -48 7 -28
6 -37 -10 -55 -11 -11 -20 -30 -21 -41 -1 -18 -2 -18 -9 4 -8 23 -8 23 -9 -8
-1 -18 -8 -40 -16 -48 -17 -18 -17 -18 -66 126 -40 115 -55 259 -18 178 8 -19
8 -15 4 18 -2 22 -2 44 1 47 8 8 30 -15 38 -39 3 -10 4 0 2 24 -3 31 0 42 10
42 8 0 14 9 14 20 0 11 2 20 4 20 3 0 25 -43 50 -96z m-5874 50 c117 -37 210
-85 210 -109 0 -3 -9 -1 -21 5 -11 7 -23 9 -26 7 -3 -3 12 -15 34 -26 21 -11
34 -20 29 -21 -4 0 2 -9 15 -20 31 -25 18 -25 -32 1 -52 26 -64 17 -15 -12 20
-11 34 -25 31 -29 -3 -4 3 -11 13 -15 15 -5 15 -7 2 -15 -18 -10 -160 21 -214
47 -31 14 -34 18 -19 27 14 8 10 12 -27 30 -35 17 -45 26 -45 46 0 14 -7 31
-15 38 -13 10 -12 11 5 6 15 -4 13 0 -7 16 -28 21 -40 48 -15 34 7 -5 6 0 -3
11 -13 16 -13 18 0 12 8 -3 53 -18 100 -33z m5754 -274 c22 -67 46 -185 30
-152 -3 6 -10 12 -16 12 -6 0 -7 -18 -3 -49 6 -47 6 -49 -24 -62 -21 -9 -31
-22 -36 -45 -3 -18 -13 -35 -22 -38 -9 -4 -17 -5 -17 -4 -1 2 -12 46 -25 99
-28 121 -36 197 -23 229 l11 25 0 -27 c1 -15 6 -30 12 -33 7 -5 8 4 4 28 -4
19 -4 45 0 57 7 22 7 22 20 -4 7 -14 16 -33 19 -43 3 -10 4 2 2 27 -1 31 2 49
13 57 21 16 26 10 55 -77z m-5619 35 c109 -26 171 -51 196 -81 13 -16 12 -16
-9 -5 -13 7 -26 10 -29 7 -3 -3 8 -12 26 -19 17 -7 28 -16 24 -20 -3 -4 1 -7
9 -7 9 0 21 -7 28 -15 15 -19 13 -19 -40 0 -58 20 -64 10 -9 -14 24 -11 37
-20 29 -21 -12 0 -11 -3 3 -11 48 -28 -3 -37 -109 -18 -96 17 -127 29 -114 44
13 15 9 18 -42 34 -21 7 -37 15 -36 19 1 4 -3 16 -7 26 -6 13 -4 21 4 24 7 2
1 12 -17 22 -32 20 -50 60 -26 60 8 0 61 -11 119 -25z m5965 -113 c0 -26 5
-182 11 -347 6 -165 9 -320 7 -344 l-3 -43 -227 171 -226 172 9 31 c4 17 10
31 11 32 59 33 89 62 112 107 14 29 26 65 26 80 0 19 10 34 35 53 42 32 80 95
95 158 l12 47 69 -35 69 -34 0 -48z m-476 -157 c30 -116 32 -140 11 -131 -12
4 -15 -5 -15 -51 0 -31 -3 -54 -6 -50 -10 10 -34 -20 -35 -45 -1 -19 -3 -18
-8 7 l-7 30 -8 -38 c-4 -21 -11 -35 -16 -32 -5 3 -12 0 -16 -7 -9 -14 -43 174
-45 252 -1 30 2 66 6 80 9 24 9 24 16 -10 l6 -35 2 37 c0 20 4 44 7 53 5 13 9
11 20 -11 8 -14 12 -30 9 -34 -3 -5 -1 -11 5 -15 6 -4 10 11 10 39 0 36 3 44
15 40 10 -4 15 0 15 12 0 31 8 11 34 -91z m-5305 39 c70 -15 151 -47 151 -60
0 -4 -12 -3 -26 0 -15 4 -23 3 -20 -3 4 -5 20 -12 36 -16 17 -4 28 -11 24 -16
-3 -5 2 -9 10 -9 8 0 18 -5 22 -12 7 -11 -11 -9 -76 8 -34 9 -17 -8 21 -21 16
-5 28 -13 26 -17 -1 -4 7 -14 18 -23 19 -15 13 -16 -85 -12 -114 5 -163 18
-154 40 3 9 -8 18 -36 26 -23 7 -40 18 -40 26 0 8 -9 24 -20 35 l-21 21 28 -7
28 -6 -30 17 c-40 22 -53 35 -34 35 12 0 12 2 -1 11 -19 14 73 5 179 -17z
m5155 -223 c21 -116 21 -172 1 -165 -14 6 -20 -7 -16 -30 4 -20 -10 -57 -19
-51 -6 3 -10 1 -10 -4 0 -6 -9 -11 -19 -11 -13 0 -23 -11 -30 -33 -14 -41 -37
-44 -45 -5 -15 77 -18 245 -5 284 l13 39 7 -35 6 -35 2 38 c0 21 7 45 15 53
13 12 16 9 24 -28 l10 -43 1 48 c1 30 5 46 11 42 6 -3 13 1 16 9 12 32 22 14
38 -73z m-4972 14 c37 -7 79 -21 95 -29 l28 -15 -35 -2 c-34 -1 -33 -2 15 -14
28 -7 43 -14 35 -14 -8 -1 -1 -8 15 -16 29 -14 28 -14 -25 -9 -39 3 -49 2 -35
-5 11 -5 30 -10 43 -10 12 -1 22 -7 22 -15 0 -8 8 -17 18 -21 41 -19 -159 -32
-233 -16 -20 4 -26 9 -17 14 18 12 5 27 -23 27 -33 0 -55 10 -55 25 0 8 -7 21
-16 29 -14 15 -14 16 3 17 10 0 1 7 -20 16 -24 10 -36 21 -33 29 3 7 0 15 -7
18 -29 11 164 4 225 -9z m-208 -124 c16 -16 40 -35 55 -41 20 -8 30 -22 39
-55 15 -57 70 -118 127 -141 35 -15 45 -25 54 -55 6 -20 27 -51 46 -70 19 -19
35 -38 35 -44 0 -5 -21 -30 -46 -56 l-45 -46 -380 95 c-209 52 -378 96 -377
97 14 14 454 345 459 345 3 0 18 -13 33 -29z m5010 -33 c4 -18 9 -72 13 -120
6 -85 6 -87 -16 -81 -19 5 -21 1 -21 -33 0 -49 -9 -61 -41 -60 -21 1 -29 -5
-38 -31 -7 -18 -18 -33 -26 -33 -7 0 -16 -6 -18 -12 -3 -7 -6 52 -6 132 0 125
2 150 19 185 16 31 19 34 15 13 -3 -15 -1 -30 5 -33 6 -4 10 8 10 30 0 43 29
82 32 43 0 -13 0 -31 0 -41 -1 -10 3 -15 8 -12 6 3 10 21 10 40 0 31 5 37 41
44 4 0 9 -14 13 -31z m-4544 -50 l35 -16 -40 -2 -40 -2 42 -8 c23 -5 54 -16
70 -24 l28 -15 -55 -2 -55 -1 45 -13 c25 -7 38 -14 30 -14 -8 -1 -2 -8 15 -15
27 -11 28 -13 10 -20 -31 -12 -263 -19 -246 -8 21 15 4 32 -32 32 -27 0 -79
19 -53 20 5 0 3 7 -4 15 -7 9 -10 19 -6 22 4 4 -8 15 -25 24 -18 9 -34 24 -35
34 -2 16 9 17 139 13 101 -3 152 -9 177 -20z m-273 -44 c-3 -3 -12 -4 -19 -1
-8 3 -5 6 6 6 11 1 17 -2 13 -5z m4647 -267 c-5 -22 -9 -26 -19 -17 -16 13
-20 7 -29 -42 -4 -24 -13 -38 -21 -38 -8 0 -15 -4 -15 -10 0 -5 -7 -10 -15
-10 -8 0 -15 6 -15 13 0 6 -10 -7 -21 -31 -14 -28 -25 -39 -29 -32 -6 9 -9 9
-13 -1 -10 -25 -7 84 4 171 9 77 39 170 54 170 3 0 2 -12 -1 -26 -5 -19 -4
-25 5 -20 6 4 11 22 11 39 0 24 3 28 10 17 8 -12 10 -12 11 5 l0 20 9 -20 c4
-11 6 -31 4 -45 -2 -14 4 -3 12 24 10 31 19 44 24 37 5 -9 10 -5 15 11 10 28
27 -172 19 -215z m-4172 134 c11 -11 9 -13 -14 -7 -17 4 -28 2 -28 -4 0 -5 15
-10 33 -10 17 0 39 -5 47 -10 11 -7 4 -11 -29 -16 -49 -8 -38 -24 17 -24 18 0
31 -4 28 -9 -3 -4 7 -14 22 -21 25 -13 21 -14 -78 -31 -137 -23 -171 -24 -164
-4 5 12 -2 15 -32 15 -22 0 -46 5 -54 10 -8 5 -11 10 -6 10 5 0 -1 9 -14 20
-21 18 -21 20 -4 20 14 1 -47 29 -64 30 -2 0 0 5 3 10 3 6 1 10 -6 10 -8 0 -9
3 -3 9 22 23 325 24 346 2z m3980 -143 c-1 -46 -5 -102 -8 -125 -5 -42 -18
-56 -27 -30 -2 6 -12 -13 -21 -43 -13 -44 -21 -56 -38 -57 -12 -1 -25 -8 -29
-15 -7 -10 -9 -10 -9 2 0 8 -9 1 -19 -16 -18 -29 -51 -42 -51 -20 1 31 31 223
41 255 6 20 20 48 30 62 l19 24 -5 -35 -5 -35 13 37 c7 20 18 43 25 50 12 12
16 -3 13 -57 0 -11 7 0 15 24 10 27 19 39 24 31 5 -8 9 -5 13 9 12 47 22 16
19 -61z m-3807 -10 l40 -12 -35 -7 c-35 -6 -35 -6 10 -8 33 -1 41 -4 30 -11
-13 -9 -13 -10 0 -10 12 -1 11 -3 -3 -11 -9 -5 -21 -8 -26 -4 -5 3 -12 1 -16
-5 -4 -6 12 -10 42 -10 35 0 44 -3 33 -10 -12 -8 -11 -10 8 -10 12 0 22 -4 22
-9 0 -12 -191 -61 -236 -60 -21 1 -31 3 -21 6 9 2 17 11 17 20 0 12 -8 14 -37
10 -32 -6 -41 -3 -58 17 -11 13 -29 26 -40 29 -17 4 -16 5 5 6 22 2 21 3 -10
14 -19 7 -33 16 -32 21 2 5 -2 13 -10 17 -10 7 -10 9 2 10 8 0 51 6 95 14 104
17 171 18 220 3z m4135 -74 c23 -25 40 -51 37 -57 -2 -7 -60 -173 -128 -369
-68 -197 -126 -358 -129 -358 -6 0 -294 467 -298 485 -2 7 9 15 25 18 44 9
109 57 134 99 14 21 35 41 49 44 69 18 145 79 172 139 8 18 40 34 89 44 4 0
25 -20 49 -45z m-530 -85 c-12 -115 -27 -164 -45 -149 -15 12 -18 9 -34 -41
-10 -32 -15 -35 -46 -34 -26 0 -39 -5 -54 -25 -10 -15 -27 -27 -36 -27 -18 0
-17 17 12 137 17 72 69 190 83 190 6 0 6 -10 0 -25 -5 -14 -6 -25 -1 -25 5 0
12 14 16 30 8 38 41 60 40 27 0 -12 -4 -28 -9 -35 -4 -7 -5 -16 -2 -19 3 -4
14 12 24 35 9 23 22 40 29 38 6 -3 14 2 17 11 14 34 16 2 6 -88z m277 29 c-3
-8 -6 -5 -6 6 -1 11 2 17 5 13 3 -3 4 -12 1 -19z m-3657 -8 c12 -8 9 -10 -12
-10 -15 0 -30 -4 -33 -10 -3 -5 0 -8 7 -6 7 2 27 7 45 10 25 4 31 2 29 -12 -2
-9 -13 -18 -24 -20 -42 -6 -22 -20 21 -15 23 3 39 2 34 -3 -4 -4 5 -13 20 -19
26 -11 22 -13 -76 -48 -112 -41 -157 -47 -147 -21 5 13 -1 14 -38 9 -39 -6
-48 -4 -70 18 -17 17 -21 27 -13 30 7 3 -7 6 -31 6 -24 1 -41 5 -37 10 3 5 0
13 -7 17 -16 10 215 72 272 73 25 0 52 -4 60 -9z m3159 -158 c-19 -94 -49
-176 -57 -154 -7 21 -19 13 -36 -25 -13 -30 -23 -38 -46 -40 -17 -1 -30 2 -30
8 0 6 -12 -4 -26 -21 -20 -24 -29 -28 -35 -18 -7 10 -9 10 -9 1 0 -7 -4 -13
-8 -13 -10 0 58 212 81 255 24 44 46 69 53 62 4 -4 1 -13 -6 -22 -7 -8 -8 -15
-2 -15 5 0 15 13 22 30 7 16 16 28 20 25 5 -3 11 1 13 7 3 7 6 3 6 -10 1 -13
-4 -33 -10 -44 -8 -15 -8 -19 0 -14 6 4 20 24 31 44 10 20 19 31 20 24 0 -10
4 -9 16 3 9 9 18 15 19 13 2 -2 -5 -45 -16 -96z m-2939 38 c12 -8 9 -10 -12
-10 -16 0 -28 -4 -28 -9 0 -5 16 -5 37 -1 20 5 41 6 45 3 13 -7 -12 -33 -33
-33 -10 0 -21 -4 -24 -10 -7 -12 -1 -12 48 -1 30 7 37 6 34 -4 -3 -7 1 -12 10
-11 9 0 17 -3 19 -9 4 -12 -184 -95 -215 -95 -15 0 -19 4 -14 17 5 13 2 15
-18 9 -58 -16 -82 -19 -75 -8 3 6 -7 16 -24 24 -25 11 -27 14 -12 20 10 4 0 7
-26 7 -24 1 -41 5 -37 10 3 5 0 13 -6 17 -13 8 78 42 196 74 79 21 113 24 135
10z m2650 -112 c-8 -18 -5 -16 14 7 14 17 26 35 26 40 0 6 4 4 9 -4 8 -12 12
-12 25 -2 21 18 21 16 -14 -91 -30 -91 -59 -155 -60 -130 0 23 -19 12 -40 -26
-21 -37 -55 -50 -76 -29 -4 4 -18 -3 -31 -15 -13 -12 -32 -22 -42 -23 -37 -3
91 280 138 304 9 5 24 7 34 6 9 -2 18 2 18 8 1 7 3 4 6 -5 2 -9 -1 -27 -7 -40z
m-2445 -2 c-30 -14 -29 -14 18 -10 43 3 47 1 36 -13 -7 -8 -22 -19 -34 -23
-30 -13 7 -13 39 0 17 6 26 6 26 0 0 -6 9 -10 20 -10 39 0 19 -17 -80 -68
-101 -52 -130 -61 -130 -41 0 7 -10 9 -25 5 -14 -3 -37 -9 -51 -12 -19 -5 -25
-4 -20 5 4 6 1 11 -7 11 -8 0 -17 7 -21 15 -3 9 -19 15 -41 15 -22 0 -34 4
-30 10 3 6 1 10 -4 10 -41 0 35 40 184 96 33 13 80 23 105 23 l45 0 -30 -13z
m-499 -80 c18 -8 51 -18 75 -22 32 -5 54 -17 81 -44 40 -41 110 -70 165 -70
26 0 42 -8 68 -36 l34 -36 -25 -64 c-15 -35 -29 -64 -33 -64 -3 0 -177 -22
-386 -49 -209 -27 -381 -48 -382 -47 -2 1 28 52 65 112 37 60 108 173 156 252
l89 143 31 -29 c17 -16 45 -37 62 -46z m2718 17 c-4 -16 -11 -35 -16 -43 -6
-8 3 -1 18 16 16 17 41 34 56 38 l28 6 -31 -82 c-42 -114 -69 -161 -85 -147
-10 8 -18 3 -34 -24 -21 -35 -50 -45 -76 -25 -6 4 -20 -2 -34 -17 -23 -24 -47
-35 -35 -15 3 6 -1 7 -9 4 -21 -8 -20 -7 10 62 55 128 104 203 147 226 21 11
21 11 4 -16 -10 -14 -14 -26 -9 -26 4 0 16 14 26 30 9 17 22 28 27 25 5 -4 9
-1 9 4 0 6 2 11 5 11 3 0 2 -12 -1 -27z m-1974 -13 c0 -5 -6 -10 -14 -10 -8 0
-18 -5 -22 -11 -4 -8 1 -9 17 -3 13 4 37 9 52 10 28 2 28 2 10 -15 -10 -10
-25 -21 -33 -24 -11 -4 -10 -6 3 -6 10 -1 28 4 39 10 13 7 23 8 27 1 3 -5 15
-11 26 -13 14 -3 -4 -19 -70 -62 -97 -63 -133 -77 -145 -57 -7 11 -14 11 -39
0 -28 -11 -36 -10 -66 6 -22 12 -30 21 -23 25 7 4 -8 5 -32 2 -29 -4 -41 -3
-36 5 3 5 0 12 -6 15 -7 2 -11 6 -8 8 12 10 247 118 265 122 36 8 55 7 55 -3z
m1737 -59 c-2 -10 -9 -26 -16 -35 -7 -9 -10 -16 -5 -16 4 0 20 15 35 33 16 17
28 26 29 18 0 -11 3 -11 15 -1 26 22 26 5 1 -33 -13 -19 -22 -38 -19 -40 6 -6
-40 -94 -66 -127 -19 -23 -21 -23 -21 -5 0 16 -7 12 -38 -23 -36 -41 -38 -42
-64 -28 -24 13 -28 12 -40 -2 -10 -12 -10 -14 0 -8 6 4 12 3 12 -3 0 -9 -66
-9 -74 0 -7 7 113 202 142 232 15 16 36 34 47 39 19 11 19 10 2 -16 -10 -14
-13 -26 -8 -26 5 0 16 11 25 25 9 14 21 23 26 20 6 -4 10 -1 10 4 0 6 2 11 5
11 3 0 4 -9 2 -19z m-2224 -8 c-7 -2 -19 -2 -25 0 -7 3 -2 5 12 5 14 0 19 -2
13 -5z m707 -13 c-30 -24 -20 -26 22 -4 24 12 33 13 42 3 8 -9 7 -11 -6 -6
-12 4 -15 2 -11 -8 3 -9 -4 -18 -18 -24 -13 -5 -18 -10 -11 -10 7 -1 28 6 47
13 22 10 35 11 35 4 0 -5 7 -8 15 -4 49 18 -42 -73 -122 -124 -52 -33 -73 -38
-73 -15 0 12 -8 11 -41 -7 -33 -17 -43 -18 -49 -8 -5 7 -23 13 -40 13 -31 0
-31 1 -8 13 21 11 18 12 -21 7 -32 -4 -42 -3 -37 5 4 7 0 12 -10 12 -10 0 7
15 37 33 30 18 73 46 97 62 71 47 206 88 152 45z m2091 -13 c-10 -9 -11 -8 -5
6 3 10 9 15 12 12 3 -3 0 -11 -7 -18z m-813 -36 l-20 -36 28 26 c16 14 41 26
57 27 l27 2 -32 -58 c-42 -76 -82 -135 -104 -153 -10 -8 -15 -9 -11 -2 4 6 2
15 -4 19 -7 4 -22 -6 -35 -24 -19 -23 -31 -30 -52 -27 -15 2 -31 4 -35 4 -5 1
-5 6 -2 11 3 6 -10 1 -29 -11 -23 -13 -40 -18 -50 -12 -13 7 -1 28 64 115 44
58 95 116 114 127 42 26 54 27 31 1 -29 -32 -12 -33 19 -2 39 42 59 38 34 -7z
m-1038 -1 c-32 -25 -20 -26 21 -1 48 29 67 15 28 -20 -38 -34 -29 -38 19 -9
36 22 46 25 37 10 -3 -6 3 -9 14 -7 32 4 20 -14 -54 -81 -64 -58 -136 -108
-121 -84 13 21 -16 23 -48 3 -36 -22 -51 -27 -42 -12 9 14 -35 21 -58 10 -17
-8 -16 -6 4 10 l25 21 -28 -10 c-36 -13 -60 -13 -52 0 3 6 -2 10 -11 10 -21 0
132 117 201 154 27 14 59 26 70 26 18 0 18 -2 -5 -20z m253 -17 c-13 -8 -23
-20 -23 -25 0 -5 12 -1 28 10 34 24 68 26 49 3 -6 -9 -19 -21 -27 -28 -24 -20
0 -15 36 8 19 11 34 16 34 11 0 -6 10 -8 23 -5 l22 6 -24 -26 c-13 -14 -29
-25 -35 -24 -6 1 -10 -5 -8 -15 1 -9 -21 -37 -55 -67 -44 -39 -59 -48 -70 -39
-10 8 -18 7 -31 -4 -25 -22 -66 -43 -58 -29 7 10 -8 15 -42 14 -10 -1 -10 2
-1 13 9 11 4 11 -25 -1 -29 -13 -39 -13 -50 -3 -11 11 -4 22 47 68 81 74 140
118 180 135 42 19 58 18 30 -2z m484 -1 c-27 -29 -20 -38 8 -12 47 44 68 26
27 -22 -24 -29 -6 -21 34 15 l37 32 -7 -28 c-6 -26 -5 -27 14 -17 21 11 21 11
4 -17 -49 -77 -138 -182 -133 -157 4 25 -4 25 -31 -1 -23 -22 -40 -30 -70 -30
-28 0 -39 4 -35 13 3 8 -4 7 -20 -4 -14 -9 -32 -13 -45 -9 -19 6 -17 11 27 67
79 101 131 154 165 171 42 21 45 21 25 -1z m-244 -9 c-13 -8 -23 -20 -23 -25
0 -5 14 1 32 14 18 12 38 23 44 24 18 3 4 -35 -18 -47 -11 -6 -17 -13 -14 -16
3 -3 21 6 40 21 35 26 52 33 42 17 -3 -4 7 -6 21 -3 l26 5 -22 -31 c-25 -36
-33 -41 -24 -14 3 9 3 14 -1 11 -4 -4 -8 -16 -11 -28 -5 -26 -67 -103 -101
-125 -21 -15 -24 -15 -24 -1 0 21 -10 19 -40 -10 -21 -20 -31 -23 -55 -16 -17
5 -29 13 -28 18 1 6 -14 2 -34 -8 -31 -16 -37 -16 -50 -4 -12 13 -2 27 80 110
82 83 140 125 172 124 6 0 0 -7 -12 -16z m1118 -26 c-10 -9 -11 -8 -5 6 3 10
9 15 12 12 3 -3 0 -11 -7 -18z m98 -160 c1 -19 -501 -616 -505 -601 -4 15 -93
498 -96 522 -3 20 4 27 45 42 27 10 55 24 64 32 10 8 44 13 92 13 79 1 130 19
176 62 15 14 31 18 60 15 22 -2 58 3 80 11 l40 15 22 -47 c12 -25 22 -54 22
-64z m-353 65 c-17 -16 -18 -16 -5 5 7 12 15 20 18 17 3 -2 -3 -12 -13 -22z
m-506 -76 c0 -2 -8 -10 -17 -17 -16 -13 -17 -12 -4 4 13 16 21 21 21 13z
m-886 -41 c53 -27 141 -34 191 -15 21 8 35 5 68 -12 48 -25 157 -30 195 -10
l22 13 0 -83 0 -83 -343 -187 c-188 -102 -343 -185 -344 -184 -1 1 18 112 43
247 25 134 48 261 51 282 4 27 12 41 27 47 31 13 37 12 90 -15z"/>
<path d="M4380 8019 l-45 -54 39 23 38 23 -33 -43 c-19 -23 -29 -39 -22 -35 6
4 26 26 45 49 18 23 27 39 21 35 -16 -10 -17 5 -2 20 6 6 9 17 7 23 -2 7 -24
-11 -48 -41z"/>
<path d="M4280 7895 c-8 -9 -8 -15 -2 -15 12 0 26 19 19 26 -2 2 -10 -2 -17
-11z"/>
<path d="M4186 8071 c-3 -5 0 -11 7 -14 8 -3 14 1 14 9 0 16 -13 19 -21 5z"/>
<path d="M4149 8033 c-8 -10 -25 -34 -38 -53 l-24 -35 24 20 c31 26 47 46 52
68 3 9 4 17 3 17 -2 0 -9 -8 -17 -17z"/>
<path d="M4654 8023 c-27 -36 -27 -37 -4 -22 27 18 57 59 42 59 -5 0 -22 -17
-38 -37z"/>
<path d="M4469 7973 c-13 -16 -12 -17 4 -4 9 7 17 15 17 17 0 8 -8 3 -21 -13z"/>
<path d="M4649 7973 c-13 -16 -12 -17 4 -4 9 7 17 15 17 17 0 8 -8 3 -21 -13z"/>
<path d="M3877 7974 c-22 -37 -24 -43 -8 -35 16 9 46 69 38 77 -1 2 -15 -17
-30 -42z"/>
<path d="M4914 7996 c-29 -26 -34 -33 -17 -29 21 5 81 63 65 63 -5 0 -26 -15
-48 -34z"/>
<path d="M4719 7953 c-13 -16 -12 -17 4 -4 9 7 17 15 17 17 0 8 -8 3 -21 -13z"/>
<path d="M4889 7933 c-13 -16 -12 -17 4 -4 9 7 17 15 17 17 0 8 -8 3 -21 -13z"/>
<path d="M3640 7956 c0 -2 -7 -21 -15 -42 l-16 -39 21 24 c18 21 28 61 15 61
-3 0 -5 -2 -5 -4z"/>
<path d="M5174 7948 c-47 -35 -49 -37 -19 -30 16 5 35 18 43 30 18 28 12 28
-24 0z"/>
<path d="M3435 7899 c-4 -6 -5 -12 -2 -15 2 -3 7 2 10 11 7 17 1 20 -8 4z"/>
<path d="M3384 7854 c-16 -38 -14 -54 3 -32 12 16 26 68 18 68 -3 0 -13 -16
-21 -36z"/>
<path d="M5423 7874 c-24 -14 -43 -27 -43 -28 0 -12 53 11 71 30 28 30 24 30
-28 -2z"/>
<path d="M3195 7819 c-4 -6 -5 -12 -2 -15 2 -3 7 2 10 11 7 17 1 20 -8 4z"/>
<path d="M3142 7750 c-8 -33 -8 -39 3 -30 17 14 25 45 15 60 -4 7 -11 -5 -18
-30z"/>
<path d="M5650 7779 c-30 -16 -44 -27 -30 -24 47 12 79 27 84 41 3 8 4 14 3
14 -1 -1 -27 -14 -57 -31z"/>
<path d="M4212 7663 c-51 -4 -53 -5 -50 -31 3 -25 6 -27 49 -24 l46 3 6 -132
c4 -72 8 -133 9 -135 2 -1 16 0 32 3 l29 6 -5 128 -5 128 46 3 c42 3 46 5 46
28 0 24 -2 25 -75 26 -41 0 -99 -1 -128 -3z"/>
<path d="M4477 7573 c-4 -54 -7 -126 -7 -160 0 -63 0 -63 29 -63 17 0 31 6 35
16 3 9 6 81 6 160 l0 144 -28 0 -29 0 -6 -97z"/>
<path d="M4695 7641 c-68 -28 -109 -166 -71 -239 29 -55 62 -76 129 -80 77 -4
119 19 147 81 56 123 -11 248 -134 246 -28 0 -60 -4 -71 -8z m104 -52 c40 -14
51 -35 51 -96 0 -92 -54 -138 -124 -109 -43 18 -59 64 -45 128 11 48 24 66 54
78 27 12 27 12 64 -1z"/>
<path d="M3958 7633 c-16 -2 -28 -6 -28 -7 0 -2 -13 -75 -30 -162 -16 -88 -30
-160 -30 -162 0 -2 15 -2 33 0 26 2 33 8 35 30 4 35 17 44 79 52 51 6 53 6 68
-24 16 -30 23 -33 61 -22 20 7 16 16 -59 155 -44 81 -85 146 -91 146 -6 -1
-23 -4 -38 -6z m80 -188 c-2 -2 -20 -6 -41 -10 l-39 -8 7 59 c4 33 10 63 13
68 3 5 18 -17 34 -48 16 -32 28 -59 26 -61z"/>
<path d="M5021 7563 c-5 -21 -24 -89 -40 -152 -17 -63 -29 -116 -27 -118 2 -2
16 -5 32 -6 28 -2 29 0 53 91 13 50 27 92 30 92 4 0 19 -47 35 -104 16 -57 31
-109 35 -115 4 -6 20 -13 37 -17 l29 -6 38 144 c21 79 37 148 37 154 0 11 -48
29 -55 22 -2 -2 -13 -41 -25 -88 -12 -46 -25 -91 -29 -98 -4 -7 -21 38 -40
107 -27 99 -36 120 -54 125 -39 10 -46 7 -56 -31z"/>
<path d="M3645 7565 c-5 -2 -36 -11 -67 -20 -41 -12 -58 -21 -58 -33 0 -22 71
-275 80 -285 8 -9 137 26 183 50 56 29 60 119 7 151 -21 13 -26 22 -19 32 15
24 10 56 -12 84 -16 21 -28 26 -62 25 -23 0 -46 -2 -52 -4z m70 -72 c8 -23
-23 -49 -71 -57 -42 -8 -40 -9 -49 25 -6 23 -3 28 22 37 46 17 90 14 98 -5z
m26 -103 c11 -6 19 -21 19 -36 0 -25 -27 -42 -91 -58 -24 -5 -28 -2 -37 34
l-10 40 47 14 c25 8 47 15 49 15 2 1 12 -4 23 -9z"/>
<path d="M3287 7445 c-83 -29 -121 -99 -98 -183 23 -87 84 -142 156 -142 49 0
112 34 135 73 50 82 0 221 -93 256 -36 14 -53 13 -100 -4z m103 -73 c78 -79
53 -192 -43 -192 -50 0 -97 65 -97 132 0 79 84 115 140 60z"/>
<path d="M5470 7293 c-103 -107 -111 -118 -94 -130 23 -17 53 -17 60 1 10 26
36 27 88 3 50 -23 52 -26 48 -59 -3 -29 0 -36 23 -46 15 -7 30 -11 32 -8 4 3
32 286 33 322 0 12 -42 34 -64 34 -8 0 -64 -53 -126 -117z m123 -5 c-10 -91
-9 -90 -46 -72 -17 9 -34 18 -36 20 -4 4 72 93 81 94 3 0 4 -19 1 -42z"/>
<path d="M2925 7254 c-44 -26 -82 -48 -84 -50 -3 -3 142 -258 155 -273 6 -7
54 21 54 31 0 5 -11 26 -25 48 -32 51 -32 56 8 80 47 29 63 25 97 -25 l31 -45
27 17 c15 9 29 18 31 19 2 2 -3 10 -12 18 -8 9 -25 31 -37 50 -11 19 -30 38
-40 41 -15 5 -18 12 -14 33 4 18 -2 38 -18 62 -36 53 -73 52 -173 -6z m119
-33 c25 -27 13 -53 -36 -81 -40 -22 -41 -23 -55 -4 -35 47 -35 51 10 78 51 31
59 31 81 7z"/>
<path d="M5809 7272 c-9 -15 -46 -76 -83 -136 -37 -60 -65 -110 -64 -111 2 -1
34 -21 72 -44 110 -65 185 -52 240 41 59 101 41 159 -74 233 -39 25 -71 45
-73 45 -1 0 -9 -12 -18 -28z m131 -143 c0 -57 -56 -129 -99 -129 -25 0 -91 33
-91 46 0 3 23 43 51 89 l52 84 43 -30 c36 -24 44 -36 44 -60z"/>
<path d="M4180 7243 c-747 -76 -1413 -475 -1824 -1093 -200 -299 -331 -635
-393 -1005 -26 -157 -26 -590 0 -755 41 -258 112 -481 232 -725 350 -716 1016
-1214 1805 -1351 181 -32 468 -43 645 -25 311 32 573 106 850 241 264 129 442
256 661 475 155 154 249 271 356 442 370 589 475 1326 283 2000 -274 962
-1094 1666 -2085 1788 -113 14 -428 19 -530 8z m443 -34 c260 -22 550 -98 792
-207 654 -293 1160 -883 1349 -1574 285 -1041 -121 -2124 -1020 -2718 -203
-134 -465 -251 -705 -315 -231 -61 -541 -95 -728 -80 l-91 7 0 1664 0 1664
269 0 c264 0 270 0 276 -21 4 -11 9 -18 12 -16 2 3 0 15 -7 26 -10 20 -17 21
-280 21 l-270 0 0 80 0 80 368 2 c265 2 304 3 140 5 -126 2 -228 7 -228 11 0
4 -40 7 -90 7 -49 0 -90 -3 -90 -7 0 -5 -22 -8 -50 -8 l-50 0 0 63 c0 43 5 70
17 87 14 21 14 23 1 12 -14 -11 -15 5 -16 160 l0 173 18 -35 c11 -19 19 -30
20 -25 0 6 -9 25 -20 43 -19 31 -20 50 -20 467 l0 434 33 4 c68 8 254 7 370
-4z m-438 -2444 l0 -2440 -35 3 c-19 1 -54 5 -77 8 l-43 5 0 2424 0 2424 48 6
c26 4 52 8 57 10 6 2 19 3 30 2 20 -2 20 -9 20 -2442z m-186 2053 c0 -200 -4
-387 -8 -415 -4 -29 -4 -53 1 -53 4 0 8 -14 8 -31 0 -25 -3 -30 -16 -25 -15 6
-15 4 -3 -10 15 -19 27 -290 14 -321 -4 -10 -7 -32 -6 -50 2 -31 2 -32 -46
-36 l-48 -3 53 -2 c45 -2 53 -5 50 -19 -2 -14 -17 -19 -68 -24 l-65 -6 63 -1
62 -2 0 -32 c0 -25 -3 -29 -12 -20 -7 7 -17 12 -22 12 -6 0 0 -7 12 -16 24
-17 29 -53 10 -72 -19 -19 -55 -14 -72 10 -9 12 -16 17 -16 11 0 -34 63 -56
88 -31 9 9 12 -8 12 -78 0 -59 -4 -94 -12 -103 -11 -10 -10 -11 5 -6 16 7 17
-72 17 -1569 0 -1495 -1 -1576 -17 -1575 -10 0 -52 8 -93 17 l-75 17 -3 1055
c-2 1006 -1 1056 16 1080 31 42 36 57 8 25 l-25 -30 -1 88 0 88 32 -3 c25 -2
34 -9 39 -28 7 -24 7 -24 8 5 0 17 -6 41 -15 55 -14 23 -14 23 -9 3 6 -20 3
-23 -23 -23 l-29 0 0 67 c0 61 1 64 13 42 18 -32 17 -20 -1 24 -13 30 -15 105
-15 452 0 312 3 414 12 409 7 -5 8 -3 3 5 -4 7 -9 49 -12 93 -4 61 -1 83 9 89
10 7 10 9 1 9 -8 0 -13 14 -13 35 0 26 4 35 18 36 16 1 16 2 -1 6 -16 4 -17
39 -15 591 l3 587 70 17 c39 9 80 17 93 17 l22 1 -1 -362z m-229 -2053 c0
-1301 -3 -2365 -7 -2365 -4 0 -37 10 -75 22 l-68 22 0 2323 0 2322 63 20 c34
11 68 20 75 20 9 1 12 -478 12 -2364z m-190 1730 l0 -575 -22 -1 -23 -2 23 -4
22 -4 0 -262 c0 -190 -3 -258 -11 -247 -9 12 -9 11 -4 -5 5 -11 10 -33 12 -50
4 -24 2 -27 -7 -15 -10 12 -10 11 -3 -5 9 -23 20 -568 15 -807 l-3 -157 -27
-10 -27 -11 28 5 27 5 0 -945 c0 -520 -2 -945 -4 -945 -10 0 -151 62 -162 71
-11 9 -14 286 -13 1570 0 858 4 1559 9 1559 5 0 12 -9 15 -21 4 -11 9 -18 11
-16 3 2 -3 21 -12 41 -17 34 -17 38 -1 74 11 24 12 31 3 19 -12 -15 -14 -7
-18 70 -3 49 -3 92 0 98 3 5 5 28 3 52 l-3 43 39 1 38 2 -40 6 -40 6 -3 483
c-1 265 -1 482 1 482 1 0 38 16 82 35 44 19 83 35 88 35 4 0 7 -259 7 -575z
m-210 -1730 c0 -1218 -3 -2215 -7 -2215 -5 0 -39 17 -78 38 l-70 38 0 2140 0
2139 70 37 c39 21 73 38 78 38 4 0 7 -997 7 -2215z m-190 1503 l-1 -611 -30
-59 c-16 -32 -27 -58 -24 -58 2 0 16 21 29 48 l25 47 0 -472 1 -473 -80 0 -80
0 0 322 c1 204 5 328 11 341 8 14 8 18 0 13 -8 -5 -11 189 -11 703 l0 710 73
50 c39 28 75 50 80 50 4 1 7 -274 7 -611z m-190 -1504 c0 -1383 -3 -1985 -11
-1982 -5 2 -41 28 -80 58 l-69 54 0 1872 0 1872 73 56 c39 31 75 56 80 56 4 0
7 -894 7 -1986z m-219 99 c-33 -69 -33 -85 -1 -25 l21 37 -3 -42 c-2 -24 0
-43 5 -43 4 0 7 -21 5 -47 l-3 -48 -47 -2 c-31 -1 -48 3 -48 10 0 7 -4 6 -10
-3 -5 -8 -9 -26 -8 -40 1 -23 1 -24 5 -2 4 20 10 22 59 22 l54 0 0 -69 c0 -38
-3 -83 -6 -100 l-7 -31 -24 27 c-13 16 -33 44 -43 63 -11 19 -19 30 -20 24 0
-14 44 -80 76 -115 l24 -25 -2 -763 -3 -763 -72 67 -73 67 0 1703 0 1703 73
68 72 68 3 -839 2 -839 -29 -63z m-163 -920 l-3 -828 -72 85 -73 85 0 1479 0
1479 62 76 c34 42 67 81 73 87 11 13 17 -1060 13 -2463z m-188 826 c0 -914 -3
-1408 -10 -1404 -5 3 -32 43 -60 88 l-50 81 0 1231 0 1231 33 55 c41 68 81
129 85 129 1 0 2 -635 2 -1411z m-161 -6 l-1 -1158 -39 80 c-21 44 -54 119
-74 168 l-35 87 0 826 0 826 26 66 c30 77 115 262 121 262 1 0 3 -521 2 -1157z
m-190 0 c0 -383 -4 -669 -9 -657 -4 12 -18 66 -30 120 -68 315 -77 650 -24
954 18 102 54 260 60 260 2 0 4 -305 3 -677z m1111 -263 c0 -137 -3 -180 -12
-180 -10 0 -10 -2 0 -8 10 -7 12 -180 10 -835 l-3 -827 -77 50 -78 49 0 796
c0 750 1 795 18 796 16 1 16 2 0 6 -16 4 -18 21 -18 169 l0 164 80 0 80 0 0
-180z"/>
<path d="M4323 6778 c-27 -30 -43 -62 -43 -85 1 -10 7 -1 15 20 7 22 23 50 36
63 12 13 20 24 17 24 -2 0 -14 -10 -25 -22z"/>
<path d="M4513 6747 c12 -24 23 -40 25 -35 4 8 -36 78 -43 78 -3 0 6 -19 18
-43z"/>
<path d="M4541 6650 c-4 -116 -96 -200 -173 -159 -15 8 -19 8 -14 0 4 -6 1
-11 -8 -11 -8 0 -17 -3 -19 -7 -3 -5 35 -8 83 -8 48 0 86 3 83 8 -2 4 -11 7
-19 7 -10 0 -5 9 15 25 37 32 64 99 58 151 l-4 39 -2 -45z"/>
<path d="M4271 6644 c0 -11 3 -14 6 -6 3 7 2 16 -1 19 -3 4 -6 -2 -5 -13z"/>
<path d="M4280 6607 c0 -21 35 -93 51 -103 6 -3 3 5 -6 20 -10 14 -23 43 -31
64 -7 20 -13 29 -14 19z"/>
<path d="M4313 6435 c-11 -12 6 -14 101 -17 106 -3 113 -2 98 13 -10 10 -21
13 -26 8 -13 -12 -139 -12 -151 0 -6 6 -15 4 -22 -4z"/>
<path d="M4745 6435 c24 -8 116 -12 103 -4 -7 5 -35 8 -63 8 -27 0 -45 -2 -40
-4z"/>
<path d="M4870 6416 c0 -2 8 -10 18 -17 15 -13 16 -12 3 4 -13 16 -21 21 -21
13z"/>
<path d="M4405 6390 l-120 -6 123 -2 c76 -1 122 2 122 8 0 6 -1 9 -2 8 -2 -1
-57 -5 -123 -8z"/>
<path d="M4626 6360 c-20 -22 -36 -43 -36 -47 0 -4 3 -3 8 3 4 5 23 26 41 47
19 20 32 37 29 37 -3 0 -22 -18 -42 -40z"/>
<path d="M4264 6369 c-3 -6 -2 -15 3 -20 5 -5 9 -1 9 11 0 23 -2 24 -12 9z"/>
<path d="M4805 6363 c30 -8 45 -23 46 -47 1 -18 2 -18 6 -3 6 24 -24 57 -51
56 -20 -1 -20 -2 -1 -6z"/>
<path d="M4912 6330 c0 -19 2 -27 5 -17 2 9 2 25 0 35 -3 9 -5 1 -5 -18z"/>
<path d="M4303 6333 c4 -3 1 -13 -5 -22 -10 -12 -8 -12 8 2 16 13 39 17 103
17 45 0 91 -5 101 -10 16 -8 18 -8 14 5 -5 12 -27 15 -117 15 -61 0 -107 -3
-104 -7z"/>
<path d="M4659 6293 l-24 -28 28 24 c25 23 32 31 24 31 -2 0 -14 -12 -28 -27z"/>
<path d="M4760 6279 c0 -5 5 -7 10 -4 6 3 10 8 10 11 0 2 -4 4 -10 4 -5 0 -10
-5 -10 -11z"/>
<path d="M4830 6280 c-9 -6 -10 -10 -3 -10 6 0 15 5 18 10 8 12 4 12 -15 0z"/>
<path d="M4281 6255 c-9 -90 -1 -228 14 -251 13 -20 13 -24 1 -24 -21 0 -41
-29 -29 -41 8 -8 11 -6 10 7 -2 17 9 19 133 24 74 3 129 7 122 8 -7 1 -10 7
-6 15 6 10 4 10 -7 0 -8 -9 -45 -13 -105 -13 -73 0 -94 3 -105 16 -10 12 -16
59 -20 153 -3 75 -6 123 -8 106z"/>
<path d="M4547 6233 c-4 -3 -7 -20 -6 -37 l1 -31 8 35 c9 36 8 45 -3 33z"/>
<path d="M4803 6233 c9 -2 23 -2 30 0 6 3 -1 5 -18 5 -16 0 -22 -2 -12 -5z"/>
<path d="M4593 6140 c0 -25 2 -35 4 -22 2 12 2 32 0 45 -2 12 -4 2 -4 -23z"/>
<path d="M4540 6080 c0 -16 4 -30 8 -30 5 0 7 14 4 30 -2 17 -6 30 -8 30 -2 0
-4 -13 -4 -30z"/>
<path d="M4560 6034 c0 -6 7 -19 16 -30 14 -18 14 -18 3 6 -14 31 -19 36 -19
24z"/>
<path d="M5378 6023 c23 -2 61 -2 85 0 23 2 4 4 -43 4 -47 0 -66 -2 -42 -4z"/>
<path d="M5268 6013 c6 -2 18 -2 25 0 6 3 1 5 -13 5 -14 0 -19 -2 -12 -5z"/>
<path d="M5218 6003 c7 -3 16 -2 19 1 4 3 -2 6 -13 5 -11 0 -14 -3 -6 -6z"/>
<path d="M5158 5993 c7 -3 16 -2 19 1 4 3 -2 6 -13 5 -11 0 -14 -3 -6 -6z"/>
<path d="M5108 5983 c7 -3 16 -2 19 1 4 3 -2 6 -13 5 -11 0 -14 -3 -6 -6z"/>
<path d="M4590 5977 c0 -2 15 -16 33 -33 l32 -29 -29 33 c-28 30 -36 37 -36
29z"/>
<path d="M5048 5973 c7 -3 16 -2 19 1 4 3 -2 6 -13 5 -11 0 -14 -3 -6 -6z"/>
<path d="M4998 5963 c7 -3 16 -2 19 1 4 3 -2 6 -13 5 -11 0 -14 -3 -6 -6z"/>
<path d="M4738 5953 c7 -3 16 -2 19 1 4 3 -2 6 -13 5 -11 0 -14 -3 -6 -6z"/>
<path d="M4913 5953 c9 -2 23 -2 30 0 6 3 -1 5 -18 5 -16 0 -22 -2 -12 -5z"/>
<path d="M4813 5943 c9 -2 23 -2 30 0 6 3 -1 5 -18 5 -16 0 -22 -2 -12 -5z"/>
<path d="M5448 5933 c39 -4 42 -6 36 -26 -3 -12 -5 -20 -3 -17 2 3 13 15 23
28 l19 22 -59 -2 c-50 -1 -53 -2 -16 -5z"/>
<path d="M4298 5923 c7 -3 16 -2 19 1 4 3 -2 6 -13 5 -11 0 -14 -3 -6 -6z"/>
<path d="M4500 5926 c0 -2 7 -6 15 -10 8 -3 15 -1 15 4 0 6 -7 10 -15 10 -8 0
-15 -2 -15 -4z"/>
<path d="M5333 5923 c9 -2 23 -2 30 0 6 3 -1 5 -18 5 -16 0 -22 -2 -12 -5z"/>
<path d="M5531 5927 c2 -1 13 -9 24 -17 19 -14 19 -14 6 3 -7 9 -18 17 -24 17
-6 0 -8 -1 -6 -3z"/>
<path d="M5248 5913 c6 -2 18 -2 25 0 6 3 1 5 -13 5 -14 0 -19 -2 -12 -5z"/>
<path d="M5183 5903 c9 -2 23 -2 30 0 6 3 -1 5 -18 5 -16 0 -22 -2 -12 -5z"/>
<path d="M5651 5894 c0 -11 3 -14 6 -6 3 7 2 16 -1 19 -3 4 -6 -2 -5 -13z"/>
<path d="M4414 5891 c-90 -5 -109 -8 -98 -18 8 -8 15 -9 19 -3 8 12 137 13
151 1 5 -5 17 -1 28 10 11 11 18 18 15 17 -2 -1 -54 -4 -115 -7z"/>
<path d="M5098 5893 c6 -2 18 -2 25 0 6 3 1 5 -13 5 -14 0 -19 -2 -12 -5z"/>
<path d="M4728 5883 c6 -2 18 -2 25 0 6 3 1 5 -13 5 -14 0 -19 -2 -12 -5z"/>
<path d="M5013 5883 c9 -2 25 -2 35 0 9 3 1 5 -18 5 -19 0 -27 -2 -17 -5z"/>
<path d="M5526 5877 c3 -10 9 -15 12 -12 3 3 0 11 -7 18 -10 9 -11 8 -5 -6z"/>
<path d="M4827 5873 c18 -2 50 -2 70 0 21 2 7 4 -32 4 -38 0 -55 -2 -38 -4z"/>
<path d="M5404 5858 c-4 -6 -3 -8 4 -4 6 3 13 -2 15 -11 4 -14 5 -13 6 5 1 23
-13 30 -25 10z"/>
<path d="M5550 5833 c8 -18 7 -24 -10 -33 -12 -6 -35 -10 -53 -8 -27 2 -32 7
-30 26 2 19 1 21 -11 10 -12 -11 -12 -16 1 -30 22 -24 85 -24 106 0 15 17 15
20 1 38 -14 18 -15 18 -4 -3z"/>
<path d="M5382 5800 c0 -19 2 -27 5 -17 2 9 2 25 0 35 -3 9 -5 1 -5 -18z"/>
<path d="M4961 5817 c2 -1 13 -9 24 -17 19 -14 19 -14 6 3 -7 9 -18 17 -24 17
-6 0 -8 -1 -6 -3z"/>
<path d="M4840 5765 c-6 -8 -10 -20 -7 -27 3 -8 6 -6 6 5 1 10 11 22 24 27 15
6 17 9 6 9 -9 1 -22 -6 -29 -14z"/>
<path d="M4908 5764 c24 -17 29 -53 10 -72 -19 -19 -55 -14 -72 10 -9 12 -16
17 -16 11 0 -19 30 -43 54 -43 28 0 56 29 56 57 0 20 -28 53 -46 53 -4 0 2 -7
14 -16z"/>
<path d="M5605 5743 l-30 -27 258 -513 257 -513 -275 0 -275 0 0 505 c0 378 3
505 12 505 6 0 9 2 7 4 -2 3 -18 1 -34 -2 l-30 -7 5 -340 5 -340 3 338 c1 218
6 337 12 337 7 0 9 -167 8 -496 l-3 -497 -29 -3 c-92 -10 0 -14 302 -14 291 0
342 2 342 14 0 8 -4 18 -10 21 -6 3 -7 -1 -4 -9 4 -11 0 -16 -10 -16 -11 0
-93 155 -272 511 -140 281 -253 514 -250 517 8 7 9 5 45 -65 17 -35 34 -63 36
-63 3 0 -11 32 -31 71 -34 68 -34 72 -18 90 24 27 14 23 -21 -8z"/>
<path d="M5397 5751 c6 -7 9 -21 6 -30 -4 -14 -3 -14 6 -1 9 13 14 9 13 -10 0
-3 11 -6 26 -7 24 -1 24 0 7 9 -11 6 -31 20 -45 32 -14 11 -20 15 -13 7z"/>
<path d="M4991 5693 c-10 -26 -10 -27 4 -9 8 11 15 23 15 28 0 15 -7 8 -19
-19z"/>
<path d="M5406 5675 c-9 -26 -7 -32 5 -12 6 10 9 21 6 23 -2 3 -7 -2 -11 -11z"/>
<path d="M5357 5625 c-24 -50 -20 -58 4 -12 11 22 19 41 17 43 -3 2 -12 -12
-21 -31z"/>
<path d="M5377 5605 c-24 -50 -20 -58 4 -12 11 22 19 41 17 43 -3 2 -12 -12
-21 -31z"/>
<path d="M4962 5565 c0 -16 2 -22 5 -12 2 9 2 23 0 30 -3 6 -5 -1 -5 -18z"/>
<path d="M6272 5565 c-19 -40 -14 -144 7 -192 11 -23 37 -61 59 -85 33 -36 62
-96 62 -131 0 -5 -18 9 -40 30 -44 44 -107 78 -162 88 -36 7 -38 6 -38 -18 0
-38 27 -93 67 -138 40 -44 85 -71 149 -88 36 -10 43 -16 47 -44 10 -55 20
-187 14 -187 -2 0 -17 25 -32 55 -15 32 -44 69 -68 89 -86 69 -117 71 -117 8
0 -98 69 -200 166 -248 49 -24 54 -30 50 -53 -3 -14 -8 -57 -11 -96 l-7 -70
-20 40 c-33 65 -137 160 -155 141 -12 -12 -15 -103 -4 -142 14 -53 62 -118
111 -152 37 -25 40 -30 34 -62 -8 -52 -46 -180 -53 -180 -3 0 -7 23 -8 50 -4
66 -39 135 -99 190 l-48 44 -14 -34 c-19 -47 -11 -144 17 -195 12 -22 45 -61
73 -88 l52 -47 -13 -38 c-8 -20 -24 -59 -36 -86 l-22 -48 -7 63 c-8 68 -39
138 -82 183 -26 27 -28 28 -41 10 -57 -78 -35 -224 48 -318 18 -21 28 -41 23
-48 -26 -46 -98 -157 -100 -155 -2 1 2 23 7 47 6 25 7 65 4 90 -8 50 -49 142
-75 165 -16 14 -19 14 -32 -7 -60 -95 -46 -232 33 -330 l22 -27 -51 -63 c-27
-35 -65 -76 -82 -93 l-32 -30 16 32 c24 47 22 168 -4 229 l-21 47 -29 -28
c-71 -68 -89 -177 -49 -291 l22 -62 -38 -33 c-44 -39 -75 -62 -75 -56 0 3 7
24 15 47 26 73 12 220 -20 220 -23 0 -94 -88 -106 -132 -14 -53 -14 -144 1
-183 11 -28 9 -32 -20 -56 -17 -14 -78 -53 -135 -85 -57 -32 -105 -65 -105
-71 0 -7 3 -13 7 -13 11 0 136 72 209 121 l71 48 28 -29 c61 -63 184 -89 276
-59 61 21 67 34 29 69 -58 54 -141 77 -226 61 -27 -5 -50 -9 -51 -7 -1 1 36
34 83 74 l84 72 40 -20 c28 -14 59 -20 111 -20 61 0 80 5 130 31 32 17 65 39
75 50 15 17 14 19 -17 38 -60 37 -165 39 -231 5 -15 -8 -29 -14 -32 -14 -3 0
29 40 71 90 69 81 79 89 102 82 50 -14 174 -7 209 11 44 24 112 86 112 102 0
19 -55 35 -120 35 -45 0 -71 -7 -115 -30 l-57 -30 21 33 c12 17 33 53 48 80
22 39 30 46 47 41 11 -4 46 -6 77 -6 74 1 142 35 198 98 61 70 54 84 -44 84
-60 0 -102 -15 -163 -59 l-42 -31 16 37 c9 21 28 66 42 100 24 60 25 61 57 56
88 -14 210 60 259 160 l27 52 -48 3 c-26 2 -64 -1 -83 -7 -41 -12 -114 -71
-142 -115 -22 -35 -23 -36 17 111 l28 102 41 6 c108 18 197 112 220 234 6 32
5 33 -20 27 -15 -4 -39 -9 -54 -12 -41 -9 -121 -74 -143 -117 -11 -21 -22 -36
-24 -33 -3 2 0 36 6 75 6 38 11 89 11 113 0 39 2 43 25 44 34 2 97 45 128 86
14 18 32 55 41 81 18 54 22 147 6 147 -24 0 -89 -41 -118 -75 -34 -38 -62 -95
-62 -126 0 -11 -4 -19 -10 -19 -6 0 -11 38 -12 90 -1 50 -2 101 -2 114 -1 18
11 33 49 58 61 41 106 122 113 203 9 113 -13 125 -94 51 -36 -32 -51 -56 -69
-109 l-23 -68 -11 63 c-9 47 -9 76 -1 113 12 53 6 107 -17 163 -14 33 -98 132
-113 132 -4 0 -12 -11 -18 -25z"/>
<path d="M4800 5551 c0 -6 4 -13 10 -16 6 -3 7 1 4 9 -7 18 -14 21 -14 7z"/>
<path d="M5312 5525 c-17 -37 -14 -45 4 -12 9 16 14 31 11 33 -2 2 -9 -7 -15
-21z"/>
<path d="M5342 5525 c-17 -37 -14 -45 4 -12 9 16 14 31 11 33 -2 2 -9 -7 -15
-21z"/>
<path d="M4843 5498 c11 -10 31 -18 46 -17 24 1 23 2 -6 9 -18 4 -39 11 -46
16 -7 5 -4 1 6 -8z"/>
<path d="M5272 5435 c-17 -37 -14 -45 4 -12 9 16 14 31 11 33 -2 2 -9 -7 -15
-21z"/>
<path d="M5302 5435 c-17 -37 -14 -45 4 -12 9 16 14 31 11 33 -2 2 -9 -7 -15
-21z"/>
<path d="M5746 5447 c3 -10 9 -15 12 -12 3 3 0 11 -7 18 -10 9 -11 8 -5 -6z"/>
<path d="M5795 5350 c19 -38 38 -70 40 -70 3 0 -11 32 -30 70 -19 39 -38 70
-40 70 -3 0 11 -31 30 -70z"/>
<path d="M5266 5355 c-9 -26 -7 -32 5 -12 6 10 9 21 6 23 -2 3 -7 -2 -11 -11z"/>
<path d="M5226 5335 c-9 -26 -7 -32 5 -12 6 10 9 21 6 23 -2 3 -7 -2 -11 -11z"/>
<path d="M5226 5265 c-9 -26 -7 -32 5 -12 6 10 9 21 6 23 -2 3 -7 -2 -11 -11z"/>
<path d="M5177 5225 c-24 -50 -20 -58 4 -12 11 22 19 41 17 43 -3 2 -12 -12
-21 -31z"/>
<path d="M5186 5175 c-9 -26 -7 -32 5 -12 6 10 9 21 6 23 -2 3 -7 -2 -11 -11z"/>
<path d="M5132 5125 c-17 -37 -14 -45 4 -12 9 16 14 31 11 33 -2 2 -9 -7 -15
-21z"/>
<path d="M5157 5105 c-24 -50 -20 -58 4 -12 11 22 19 41 17 43 -3 2 -12 -12
-21 -31z"/>
<path d="M5926 5097 c3 -10 9 -15 12 -12 3 3 0 11 -7 18 -10 9 -11 8 -5 -6z"/>
<path d="M5995 4960 c30 -60 57 -110 60 -110 3 0 -20 50 -50 110 -30 61 -57
110 -60 110 -3 0 20 -49 50 -110z"/>
<path d="M5092 5035 c-17 -37 -14 -45 4 -12 9 16 14 31 11 33 -2 2 -9 -7 -15
-21z"/>
<path d="M5122 5025 c-17 -37 -14 -45 4 -12 9 16 14 31 11 33 -2 2 -9 -7 -15
-21z"/>
<path d="M5082 4935 c-17 -37 -14 -45 4 -12 9 16 14 31 11 33 -2 2 -9 -7 -15
-21z"/>
<path d="M5046 4935 c-9 -26 -7 -32 5 -12 6 10 9 21 6 23 -2 3 -7 -2 -11 -11z"/>
<path d="M5046 4855 c-9 -26 -7 -32 5 -12 6 10 9 21 6 23 -2 3 -7 -2 -11 -11z"/>
<path d="M4997 4825 c-24 -50 -20 -58 4 -12 11 22 19 41 17 43 -3 2 -12 -12
-21 -31z"/>
<path d="M5006 4765 c-9 -26 -7 -32 5 -12 6 10 9 21 6 23 -2 3 -7 -2 -11 -11z"/>
<path d="M4950 4720 c-7 -17 -11 -32 -9 -33 2 -1 67 0 144 4 l140 5 -120 3
c-66 2 -128 2 -138 1 -16 -1 -17 1 -7 20 6 12 10 24 7 26 -2 3 -10 -9 -17 -26z"/>
<path d="M4941 4634 c0 -11 3 -14 6 -6 3 7 2 16 -1 19 -3 4 -6 -2 -5 -13z"/>
<path d="M4977 4551 c41 -75 199 -185 298 -206 17 -4 -6 9 -50 27 -119 50
-182 98 -248 188 -17 24 -17 24 0 -9z"/>
<path d="M6099 4558 c-6 -12 -32 -45 -57 -72 l-46 -51 48 45 c42 40 85 100 72
100 -3 0 -11 -10 -17 -22z"/>
<path d="M5941 4413 c-24 -14 -71 -37 -105 -50 -33 -13 -47 -21 -31 -18 36 7
142 56 170 79 30 23 16 19 -34 -11z"/>
<path d="M5318 4333 c7 -3 16 -2 19 1 4 3 -2 6 -13 5 -11 0 -14 -3 -6 -6z"/>
<path d="M5748 4333 c7 -3 16 -2 19 1 4 3 -2 6 -13 5 -11 0 -14 -3 -6 -6z"/>
<path d="M5363 4323 c9 -2 23 -2 30 0 6 3 -1 5 -18 5 -16 0 -22 -2 -12 -5z"/>
<path d="M5693 4323 c9 -2 23 -2 30 0 6 3 -1 5 -18 5 -16 0 -22 -2 -12 -5z"/>
<path d="M5428 4313 c12 -2 32 -2 45 0 12 2 2 4 -23 4 -25 0 -35 -2 -22 -4z"/>
<path d="M5608 4313 c12 -2 32 -2 45 0 12 2 2 4 -23 4 -25 0 -35 -2 -22 -4z"/>
<path d="M5518 4303 c6 -2 18 -2 25 0 6 3 1 5 -13 5 -14 0 -19 -2 -12 -5z"/>
<path d="M3934 6398 l-19 -23 23 19 c21 18 27 26 19 26 -2 0 -12 -10 -23 -22z"/>
<path d="M3911 6354 c0 -11 3 -14 6 -6 3 7 2 16 -1 19 -3 4 -6 -2 -5 -13z"/>
<path d="M3920 6276 c0 -2 8 -10 18 -17 15 -13 16 -12 3 4 -13 16 -21 21 -21
13z"/>
<path d="M3883 5953 c9 -2 25 -2 35 0 9 3 1 5 -18 5 -19 0 -27 -2 -17 -5z"/>
<path d="M3830 5805 c-19 -22 -8 -25 13 -3 9 10 13 18 8 18 -5 0 -14 -7 -21
-15z"/>
<path d="M3900 5765 c-6 -8 -10 -20 -7 -27 3 -8 6 -6 6 5 1 10 11 22 24 27 15
6 17 9 6 9 -9 1 -22 -6 -29 -14z"/>
<path d="M3852 5565 c0 -16 2 -22 5 -12 2 9 2 23 0 30 -3 6 -5 -1 -5 -18z"/>
<path d="M3923 5483 c9 -2 23 -2 30 0 6 3 -1 5 -18 5 -16 0 -22 -2 -12 -5z"/>
<path d="M3820 4745 c0 -5 5 -17 10 -25 5 -8 10 -10 10 -5 0 6 -5 17 -10 25
-5 8 -10 11 -10 5z"/>
<path d="M3866 4605 c-9 -26 -7 -32 5 -12 6 10 9 21 6 23 -2 3 -7 -2 -11 -11z"/>
<path d="M3528 6013 c6 -2 18 -2 25 0 6 3 1 5 -13 5 -14 0 -19 -2 -12 -5z"/>
<path d="M3463 5923 c9 -2 25 -2 35 0 9 3 1 5 -18 5 -19 0 -27 -2 -17 -5z"/>
<path d="M3441 5804 c0 -11 3 -14 6 -6 3 7 2 16 -1 19 -3 4 -6 -2 -5 -13z"/>
<path d="M3420 5715 c0 -5 5 -17 10 -25 5 -8 10 -10 10 -5 0 6 -5 17 -10 25
-5 8 -10 11 -10 5z"/>
<path d="M3460 5625 c0 -5 5 -17 10 -25 5 -8 10 -10 10 -5 0 6 -5 17 -10 25
-5 8 -10 11 -10 5z"/>
<path d="M3441 5605 c0 -5 6 -21 14 -35 8 -14 14 -20 14 -15 0 6 -6 21 -14 35
-8 14 -14 21 -14 15z"/>
<path d="M3486 5567 c3 -10 9 -15 12 -12 3 3 0 11 -7 18 -10 9 -11 8 -5 -6z"/>
<path d="M3501 5535 c0 -5 8 -26 19 -45 11 -19 19 -30 19 -25 0 6 -8 26 -19
45 -11 19 -19 31 -19 25z"/>
<path d="M3481 5515 c0 -5 6 -21 14 -35 8 -14 14 -20 14 -15 0 6 -6 21 -14 35
-8 14 -14 21 -14 15z"/>
<path d="M3520 5425 c0 -5 5 -17 10 -25 5 -8 10 -10 10 -5 0 6 -5 17 -10 25
-5 8 -10 11 -10 5z"/>
<path d="M3455 4330 c-27 -7 -27 -8 -5 -8 14 0 36 4 50 8 20 6 21 8 5 8 -11 0
-33 -4 -50 -8z"/>
<path d="M3162 5850 c0 -19 2 -27 5 -17 2 9 2 25 0 35 -3 9 -5 1 -5 -18z"/>
<path d="M3045 5399 c-4 -6 -5 -12 -2 -15 2 -3 7 2 10 11 7 17 1 20 -8 4z"/>
<path d="M3075 4330 c19 -8 73 -14 64 -6 -2 2 -22 6 -44 9 -28 5 -34 4 -20 -3z"/>
<path d="M2721 7108 c-24 -9 -151 -98 -151 -107 0 -6 170 -229 184 -240 7 -6
20 -3 35 9 l24 18 -31 40 c-18 22 -32 44 -32 48 0 5 18 22 40 38 65 48 75 102
30 158 -25 33 -67 48 -99 36z m51 -84 c14 -30 6 -47 -36 -78 l-27 -20 -24 29
c-32 39 -31 46 8 73 42 29 65 28 79 -4z"/>
<path d="M6036 6980 c-53 -65 -96 -122 -96 -126 0 -7 31 -33 41 -34 3 0 37 38
74 85 38 47 70 83 72 82 2 -2 -19 -51 -47 -108 l-49 -104 25 -23 c17 -14 30
-20 38 -14 93 71 136 102 161 117 35 22 39 29 -58 -88 -31 -38 -57 -72 -57
-76 0 -4 9 -16 19 -25 18 -17 23 -13 122 105 l103 122 -38 33 -38 33 -95 -70
c-52 -39 -96 -69 -98 -67 -2 2 19 50 45 108 l49 105 -22 23 c-47 50 -47 50
-151 -78z"/>
<path d="M6340 6710 l-115 -110 25 -25 25 -25 113 113 113 113 -24 22 -23 22
-114 -110z"/>
<path d="M2335 6771 c-16 -10 -52 -42 -79 -70 l-48 -52 97 -92 c153 -143 134
-136 191 -70 62 71 73 90 74 131 0 40 -13 67 -54 110 -59 64 -123 79 -181 43z
m108 -66 c72 -49 81 -108 27 -160 l-29 -28 -73 72 -73 71 37 35 c45 42 61 43
111 10z"/>
<path d="M6443 6603 c-102 -83 -119 -101 -111 -116 18 -35 37 -29 113 33 42
34 78 61 79 59 2 -2 -14 -49 -35 -104 -44 -116 -45 -125 -20 -156 l18 -23 119
98 c66 54 120 101 121 104 2 4 -6 18 -15 30 l-18 24 -80 -65 c-43 -36 -80 -64
-82 -63 -1 2 16 53 38 114 40 110 41 112 23 137 -10 13 -21 25 -24 25 -3 0
-60 -44 -126 -97z"/>
<path d="M2120 6535 c-7 -14 -11 -26 -9 -28 2 -2 39 -29 83 -60 l79 -57 -44 1
c-24 0 -79 4 -122 8 -78 7 -79 6 -98 -20 l-19 -27 37 -29 c76 -59 211 -153
220 -153 11 0 35 39 29 48 -3 5 -39 33 -81 63 -89 63 -86 65 65 50 l95 -9 22
27 c18 20 20 28 10 37 -23 23 -238 174 -246 174 -4 0 -14 -11 -21 -25z"/>
<path d="M6658 6332 c-70 -48 -128 -92 -128 -98 0 -6 8 -18 18 -28 18 -15 26
-12 145 69 70 47 127 90 127 94 0 5 -8 18 -17 29 -18 21 -19 20 -145 -66z"/>
<path d="M6776 6229 c-31 -36 -31 -42 -9 -123 19 -73 14 -96 -21 -96 -18 0
-30 9 -41 30 -17 33 -20 76 -5 85 6 4 4 18 -6 38 l-17 31 -23 -28 c-44 -50
-24 -147 39 -198 28 -22 86 -23 115 -2 38 26 44 57 25 133 -18 75 -14 101 16
101 37 0 68 -79 42 -105 -6 -6 -3 -19 10 -35 l19 -25 20 24 c26 30 26 81 0
131 -25 49 -55 70 -101 70 -29 0 -43 -7 -63 -31z"/>
<path d="M1875 6154 l-18 -35 29 -32 c17 -17 68 -74 114 -125 l84 -94 15 31
c14 29 13 32 -8 55 l-23 25 31 54 c28 50 33 53 62 49 24 -3 36 0 46 14 26 36
16 41 -129 63 -79 12 -152 24 -163 26 -16 3 -26 -4 -40 -31z m137 -45 c29 -6
55 -13 57 -15 2 -1 -7 -19 -19 -38 -17 -29 -24 -33 -33 -23 -7 7 -28 30 -46
50 -38 41 -36 42 41 26z"/>
<path d="M6983 6002 c-9 -6 -7 -18 7 -50 l19 -43 -52 -22 c-29 -13 -82 -36
-119 -52 -70 -29 -77 -38 -54 -70 13 -18 18 -17 123 28 60 26 114 47 120 47 6
0 18 -18 27 -40 15 -38 17 -39 41 -28 14 6 24 17 21 23 -74 195 -97 230 -133
207z"/>
<path d="M1686 5724 c-20 -58 -35 -108 -33 -110 2 -2 68 -27 147 -54 106 -37
145 -48 151 -39 4 7 22 57 41 111 28 85 31 100 18 108 -29 19 -44 4 -68 -70
-14 -41 -26 -76 -27 -78 -2 -2 -67 19 -74 24 -1 1 7 32 19 68 23 69 21 86 -10
86 -14 0 -24 -16 -40 -66 -22 -65 -23 -66 -53 -60 -17 3 -32 8 -34 10 -2 1 9
37 24 79 14 42 25 78 22 81 -2 2 -14 6 -25 10 -20 6 -25 -3 -58 -100z"/>
<path d="M6990 5666 c-75 -22 -137 -44 -138 -48 -4 -15 -2 -33 6 -46 7 -9 19
-9 61 4 30 9 57 12 62 7 5 -5 12 -29 15 -54 l6 -45 -52 -22 c-50 -21 -52 -22
-45 -54 4 -18 8 -34 9 -35 1 -2 20 6 41 17 22 11 45 20 52 20 7 0 20 11 29 25
15 23 17 23 40 9 19 -13 29 -14 59 -4 46 15 69 50 62 93 -10 64 -49 177 -60
176 -7 -1 -73 -20 -147 -43z m140 -86 c14 -59 2 -83 -38 -78 -20 2 -29 13 -43
55 l-17 52 26 10 c51 18 59 14 72 -39z"/>
<path d="M1871 5443 c-6 -22 -14 -53 -17 -71 -4 -18 -13 -32 -21 -32 -8 0 -64
11 -125 26 -118 27 -131 24 -126 -20 3 -17 25 -25 143 -53 77 -18 145 -33 152
-33 9 0 48 140 57 205 0 6 -11 11 -26 13 -24 3 -28 -1 -37 -35z"/>
<path d="M6927 5343 c-2 -1 -2 -16 1 -33 3 -24 10 -31 38 -36 35 -6 39 -13 49
-84 6 -43 4 -46 -25 -62 -26 -15 -30 -21 -24 -45 4 -15 8 -30 10 -32 1 -1 68
34 149 79 l145 83 -6 36 c-4 20 -7 37 -8 38 -3 3 -327 59 -329 56z m246 -102
c13 -5 5 -13 -37 -36 -30 -16 -57 -27 -60 -25 -2 3 -7 22 -11 43 l-8 39 49 -8
c27 -4 57 -10 67 -13z"/>
<path d="M1603 5200 c-92 -56 -97 -198 -8 -259 47 -32 139 -40 190 -16 108 52
110 222 1 274 -56 28 -139 28 -183 1z m126 -50 c79 -22 107 -95 56 -145 -35
-36 -121 -36 -164 1 -62 51 -23 150 59 153 8 1 30 -3 49 -9z"/>
<path d="M7239 5053 c0 -5 0 -26 1 -49 l1 -41 -77 -6 c-42 -4 -101 -7 -131 -7
l-53 0 0 -35 0 -36 126 7 c139 8 144 6 144 -53 0 -28 3 -33 25 -33 25 0 25 1
25 78 0 42 -3 101 -6 130 -6 46 -9 52 -30 52 -13 0 -24 -3 -25 -7z"/>
<path d="M1771 4840 c-29 -5 -60 -15 -68 -23 -13 -13 -17 -13 -34 4 -38 38
-121 17 -139 -34 -11 -33 -13 -127 -4 -176 l7 -31 77 0 c42 0 111 3 153 6 76
7 77 7 77 35 0 29 -1 29 -60 29 l-60 0 0 49 c0 58 10 69 70 73 44 3 45 4 48
41 2 20 0 36 -5 36 -4 -1 -32 -5 -62 -9z m-113 -132 l3 -58 -41 0 -40 0 0 53
c0 63 4 69 45 65 29 -3 30 -5 33 -60z"/>
<path d="M6980 4710 l0 -30 68 0 c38 0 110 -3 160 -6 l92 -7 0 37 0 36 -160 0
-160 0 0 -30z"/>
<path d="M7057 4596 c-20 -7 -45 -20 -54 -27 -42 -36 -57 -147 -26 -199 22
-37 81 -70 140 -76 125 -14 213 114 158 230 -30 64 -142 100 -218 72z m131
-76 c37 -23 52 -54 45 -93 -11 -57 -85 -83 -161 -56 -52 18 -73 93 -38 138 27
35 105 40 154 11z"/>
<path d="M1693 4473 c-141 -75 -143 -76 -143 -110 0 -25 6 -36 23 -43 24 -11
310 -70 314 -66 2 2 0 17 -3 34 -5 26 -12 33 -39 38 -28 5 -33 11 -39 42 -11
69 -8 88 19 100 20 9 25 19 25 47 0 19 -3 35 -7 34 -5 0 -72 -34 -150 -76z
m57 -94 c0 -31 -3 -40 -14 -36 -7 3 -34 9 -60 12 -25 4 -46 11 -46 15 0 8 87
48 108 49 8 1 12 -13 12 -40z"/>
<path d="M6935 4248 c-16 -49 -14 -51 88 -76 54 -14 95 -28 90 -32 -4 -3 -53
-19 -108 -35 -103 -29 -125 -43 -125 -81 0 -19 14 -25 146 -58 80 -20 149 -34
153 -31 5 2 11 16 13 30 6 27 15 23 -125 59 -33 8 -61 16 -63 19 -2 2 47 19
110 37 110 32 114 34 124 67 8 25 7 35 -1 38 -7 2 -68 18 -137 35 -69 17 -133
33 -143 36 -9 3 -19 -1 -22 -8z"/>
<path d="M1653 4160 c-18 -11 -35 -31 -39 -47 -8 -29 10 -129 29 -174 l12 -26
148 40 c152 41 159 45 141 90 -5 13 -12 13 -57 1 -29 -8 -53 -14 -54 -14 -1 0
-9 25 -18 55 -8 30 -25 64 -37 75 -28 26 -83 26 -125 0z m95 -62 c6 -7 13 -29
17 -49 7 -36 6 -36 -35 -47 -39 -10 -42 -9 -51 15 -10 28 -12 77 -2 86 11 12
60 8 71 -5z"/>
<path d="M1860 3815 c0 -39 -4 -47 -25 -57 -23 -10 -29 -8 -60 22 -19 19 -35
29 -35 24 0 -6 13 -23 29 -38 26 -25 28 -30 17 -57 -10 -28 -14 -30 -53 -28
-23 2 -45 0 -49 -4 -4 -4 15 -7 42 -7 45 0 51 -3 60 -27 10 -25 7 -32 -25 -65
-19 -21 -30 -38 -25 -38 6 0 19 9 29 20 10 11 22 17 28 13 6 -3 7 -1 3 6 -11
16 19 24 43 11 16 -8 21 -20 21 -55 0 -27 5 -45 11 -45 8 0 10 14 6 44 -6 42
-5 44 25 57 29 12 32 11 60 -20 16 -18 32 -30 35 -27 4 3 -3 17 -15 29 -12 13
-19 27 -15 32 5 4 3 5 -4 1 -18 -10 -24 10 -12 38 10 21 20 26 63 29 l51 3
-51 2 c-44 2 -52 5 -63 28 -12 28 -6 48 11 38 6 -4 8 -2 5 3 -4 6 2 18 13 28
11 10 20 22 20 26 0 13 -39 5 -53 -11 -10 -12 -9 -12 6 -1 24 18 22 -2 -3 -24
-17 -15 -24 -16 -49 -5 -29 12 -30 14 -24 56 4 30 2 44 -6 44 -6 0 -11 -18
-11 -45z"/>
<path d="M6915 3817 c7 -42 6 -44 -26 -57 -31 -13 -33 -13 -60 20 -16 19 -32
31 -35 27 -4 -4 0 -15 9 -24 8 -10 16 -22 15 -26 0 -5 4 -12 8 -15 4 -4 4 -1
0 6 -4 6 -3 12 3 12 19 0 23 -21 10 -51 -11 -29 -15 -31 -56 -27 -23 2 -43 0
-43 -4 0 -5 20 -8 43 -8 38 0 46 -4 56 -26 12 -27 8 -39 -12 -39 -7 -1 -11 -6
-10 -12 1 -6 -4 -17 -12 -23 -8 -7 -15 -16 -15 -21 0 -13 38 -5 53 11 10 12 9
12 -5 1 -25 -18 -23 2 2 24 17 15 23 16 50 5 29 -12 31 -15 24 -56 -4 -30 -3
-44 5 -44 6 0 11 19 11 45 0 34 5 47 19 55 31 16 54 13 47 -7 -4 -10 -4 -14 0
-10 4 4 18 -3 31 -15 12 -12 26 -18 30 -14 4 4 1 11 -6 15 -7 5 -11 13 -7 19
3 6 1 14 -5 18 -8 4 -9 3 -5 -4 10 -17 -5 -15 -25 4 -17 15 -17 19 -3 45 13
26 20 29 61 29 25 0 43 3 39 7 -4 4 -26 6 -49 4 -39 -2 -43 0 -53 28 -10 26
-9 32 10 50 27 26 43 28 25 4 -11 -15 -11 -16 1 -6 16 14 24 53 11 53 -4 0
-16 -9 -26 -20 -10 -11 -22 -17 -28 -13 -6 3 -7 1 -3 -6 11 -16 -19 -24 -43
-11 -16 8 -21 20 -21 55 0 25 -5 45 -11 45 -6 0 -8 -15 -4 -43z"/>
<path d="M1841 3824 c0 -11 3 -14 6 -6 3 7 2 16 -1 19 -3 4 -6 -2 -5 -13z"/>
<path d="M6941 3814 c0 -11 3 -14 6 -6 3 7 2 16 -1 19 -3 4 -6 -2 -5 -13z"/>
<path d="M1988 3693 c7 -3 16 -2 19 1 4 3 -2 6 -13 5 -11 0 -14 -3 -6 -6z"/>
<path d="M6788 3693 c7 -3 16 -2 19 1 4 3 -2 6 -13 5 -11 0 -14 -3 -6 -6z"/>
<path d="M1738 3653 c7 -3 16 -2 19 1 4 3 -2 6 -13 5 -11 0 -14 -3 -6 -6z"/>
<path d="M1988 3653 c7 -3 16 -2 19 1 4 3 -2 6 -13 5 -11 0 -14 -3 -6 -6z"/>
<path d="M6788 3653 c7 -3 16 -2 19 1 4 3 -2 6 -13 5 -11 0 -14 -3 -6 -6z"/>
<path d="M7038 3653 c7 -3 16 -2 19 1 4 3 -2 6 -13 5 -11 0 -14 -3 -6 -6z"/>
<path d="M1940 3566 c0 -2 8 -10 18 -17 15 -13 16 -12 3 4 -13 16 -21 21 -21
13z"/>
<path d="M6941 3534 c0 -11 3 -14 6 -6 3 7 2 16 -1 19 -3 4 -6 -2 -5 -13z"/>
<path d="M1841 3524 c0 -11 3 -14 6 -6 3 7 2 16 -1 19 -3 4 -6 -2 -5 -13z"/>
<path d="M2003 3439 l-133 -82 28 -50 c15 -27 43 -67 63 -88 32 -35 41 -39 83
-39 57 0 112 27 154 75 47 53 44 100 -10 193 -24 39 -45 72 -48 72 -3 0 -65
-37 -137 -81z m146 -35 c37 -62 25 -99 -43 -139 -23 -14 -52 -25 -63 -25 -24
0 -86 65 -81 86 2 10 145 109 165 114 0 0 10 -16 22 -36z"/>
<path d="M6624 3425 c-31 -53 -55 -97 -53 -98 22 -17 260 -157 266 -157 8 1
106 159 118 191 4 10 -3 19 -19 27 -23 10 -26 8 -66 -59 -22 -38 -45 -69 -50
-69 -19 0 -60 24 -60 34 0 6 16 37 35 70 34 55 35 59 18 72 -10 7 -21 14 -25
14 -3 0 -23 -29 -44 -64 -39 -67 -39 -67 -83 -38 -11 8 -5 24 30 82 34 58 40
73 28 81 -28 18 -39 8 -95 -86z"/>
<path d="M2182 3164 c-67 -52 -122 -98 -122 -101 0 -4 30 -46 68 -95 66 -87
85 -99 105 -67 8 12 -2 30 -41 81 -48 60 -50 66 -34 80 48 40 46 40 88 -14 21
-28 42 -56 46 -62 5 -7 14 -4 28 9 l20 20 -46 59 -47 59 24 18 c13 10 27 18
30 16 4 -1 28 -28 54 -60 47 -58 60 -64 78 -36 8 12 -5 35 -53 95 -34 43 -65
82 -69 86 -3 4 -62 -35 -129 -88z"/>
<path d="M6484 3218 c-65 -58 -80 -126 -41 -190 40 -67 134 -118 190 -104 57
14 118 88 119 146 1 34 -20 90 -35 90 -22 0 -36 -35 -30 -77 5 -35 2 -45 -20
-67 -16 -16 -37 -26 -55 -26 -37 0 -91 36 -115 78 -17 28 -18 37 -7 63 15 36
51 62 78 57 38 -6 70 43 36 56 -40 15 -84 6 -120 -26z"/>
<path d="M2362 2929 c-109 -107 -113 -112 -96 -130 24 -27 35 -24 74 16 l34
35 36 -34 c71 -68 106 -72 161 -17 58 57 54 84 -22 168 -34 38 -64 69 -68 70
-3 2 -57 -47 -119 -108z m161 -16 c23 -33 25 -40 13 -58 -21 -31 -51 -30 -87
5 l-32 30 28 30 c16 17 34 30 40 30 7 0 24 -17 38 -37z"/>
<path d="M6312 3007 l-22 -23 63 -60 c178 -170 164 -160 187 -139 21 19 26 41
11 47 -6 2 -40 32 -78 67 -37 36 -84 80 -104 98 l-35 33 -22 -23z"/>
<path d="M6239 2930 c-13 -12 -55 -51 -92 -87 l-68 -66 20 -21 21 -21 33 33
32 33 90 -96 90 -97 23 25 22 24 -82 88 c-46 48 -85 92 -87 98 -2 6 11 23 30
38 l34 28 -21 21 -20 21 -25 -21z"/>
<path d="M2592 2701 l-143 -86 27 -23 c24 -21 28 -22 50 -7 33 21 44 19 88
-20 38 -34 39 -36 29 -70 -10 -32 -9 -36 16 -54 l26 -19 56 156 c52 145 55
158 40 175 -33 39 -42 36 -189 -52z m108 -61 l-22 -60 -29 25 c-17 13 -30 28
-30 32 0 9 94 72 100 67 2 -2 -6 -30 -19 -64z"/>
<path d="M5982 2713 c-82 -40 -107 -120 -53 -174 36 -36 62 -36 136 -4 65 29
95 26 95 -10 0 -36 -47 -68 -88 -61 -33 5 -72 -10 -72 -28 0 -18 36 -35 73
-36 111 -1 188 121 124 196 -30 34 -65 35 -140 5 -64 -26 -91 -25 -95 5 -5 38
68 80 94 55 5 -6 18 -3 34 10 l25 19 -24 20 c-28 24 -65 25 -109 3z"/>
<path d="M2816 2523 c-76 -117 -82 -129 -68 -145 24 -28 40 -21 70 27 15 25
31 45 36 45 15 0 74 -40 79 -54 3 -8 -5 -34 -19 -59 -13 -26 -24 -48 -24 -51
0 -3 13 -12 28 -20 28 -14 28 -14 56 38 15 29 26 61 24 72 -2 14 4 22 27 29
19 6 37 24 50 47 30 56 15 82 -80 145 -44 29 -83 53 -87 53 -5 0 -46 -57 -92
-127z m142 33 c15 -8 36 -23 46 -35 16 -18 17 -25 8 -46 -6 -14 -20 -25 -29
-25 -18 0 -93 46 -93 56 0 8 33 64 38 64 1 0 15 -6 30 -14z"/>
<path d="M5798 2576 c-10 -7 -18 -16 -18 -20 0 -4 25 -49 55 -101 30 -51 55
-102 55 -112 0 -23 -25 -48 -57 -57 -30 -9 -49 12 -114 122 l-53 91 -27 -16
c-15 -9 -27 -19 -25 -22 2 -3 27 -48 56 -99 77 -135 116 -161 193 -128 67 28
103 82 90 134 -9 37 -116 222 -128 221 -5 0 -18 -6 -27 -13z"/>
<path d="M3126 2484 c-11 -27 -7 -34 29 -51 19 -9 35 -20 35 -25 0 -5 -25 -58
-56 -119 -30 -61 -54 -112 -52 -114 10 -8 50 -26 53 -23 1 2 28 53 60 113 32
61 59 111 60 113 2 2 22 -6 44 -18 l41 -21 12 26 c6 14 9 27 7 29 -9 9 -209
106 -218 106 -5 0 -12 -7 -15 -16z"/>
<path d="M5533 2428 c-13 -6 -23 -15 -23 -19 0 -5 23 -58 51 -119 41 -90 48
-114 39 -125 -20 -24 -55 -18 -68 10 -10 22 -14 23 -41 14 -27 -10 -29 -12
-19 -40 5 -16 20 -36 31 -44 57 -40 167 7 167 73 0 27 -98 263 -109 261 -3 0
-16 -5 -28 -11z"/>
<path d="M3330 2234 c-29 -80 -48 -149 -44 -154 5 -4 18 -10 29 -14 18 -5 24
7 59 105 21 60 40 109 41 107 2 -2 -2 -56 -8 -120 -6 -65 -8 -120 -6 -123 3
-3 19 -7 35 -10 28 -6 32 -1 94 94 36 55 66 98 67 97 1 -1 -16 -51 -37 -111
-22 -60 -39 -109 -37 -110 11 -9 49 -26 52 -23 6 6 105 285 105 295 0 8 -63
33 -83 33 -3 0 -36 -43 -72 -96 -37 -52 -68 -94 -69 -92 -2 2 1 37 5 78 14
134 12 159 -13 169 -69 26 -61 34 -118 -125z"/>
<path d="M5120 2273 c-47 -14 -86 -26 -88 -28 -1 -1 17 -71 40 -154 l43 -152
29 5 c16 4 31 7 32 9 2 2 -3 25 -11 52 -23 76 -22 80 45 100 58 18 66 27 54
58 -5 13 -14 12 -67 -4 -66 -20 -72 -18 -82 23 -7 26 -5 28 69 49 57 17 75 26
71 36 -3 8 -5 19 -5 24 0 14 -38 9 -130 -18z"/>
<path d="M3698 2108 c-23 -103 -31 -155 -24 -159 17 -10 215 -53 221 -48 2 3
6 16 7 29 3 22 -3 25 -80 43 l-83 19 6 31 c4 18 10 36 14 40 4 4 36 1 72 -8
81 -19 76 -19 81 10 5 21 0 26 -31 35 -20 6 -53 13 -74 16 -36 6 -38 8 -31 38
3 17 8 33 10 35 1 1 37 -5 78 -15 42 -10 77 -16 80 -13 2 2 6 14 10 26 6 20 0
23 -104 47 -61 14 -112 26 -114 26 -1 0 -19 -69 -38 -152z"/>
<path d="M4807 2206 c-49 -18 -67 -34 -84 -73 -34 -82 -1 -198 67 -234 70 -38
164 -15 207 50 45 66 19 195 -48 244 -34 25 -95 30 -142 13z m106 -66 c28 -22
48 -91 39 -135 -6 -34 -47 -65 -87 -65 -82 0 -124 148 -57 200 32 26 72 25
105 0z"/>
<path d="M3991 2093 c-7 -59 -15 -132 -18 -160 l-6 -53 31 0 c36 0 36 0 50
125 l8 80 53 -112 c51 -105 55 -111 86 -115 38 -4 34 -18 56 191 13 120 10
130 -33 131 -12 0 -18 -11 -22 -42 -3 -24 -9 -72 -14 -108 l-8 -65 -24 55
c-64 145 -83 175 -116 178 l-31 3 -12 -108z"/>
<path d="M4290 2140 c0 -29 2 -30 45 -30 l45 0 0 -130 0 -130 35 0 35 0 0 130
0 130 45 0 c43 0 45 1 45 30 l0 30 -125 0 -125 0 0 -30z"/>
<path d="M2917 7668 c-10 -33 -8 -60 2 -54 12 8 19 52 11 66 -5 7 -10 3 -13
-12z"/>
<path d="M5685 7690 c-3 -6 1 -7 9 -4 18 7 21 14 7 14 -6 0 -13 -4 -16 -10z"/>
<path d="M5885 7671 c-36 -18 -37 -19 -14 -20 14 -1 36 8 49 19 29 25 17 25
-35 1z"/>
<path d="M2731 7574 c0 -11 3 -14 6 -6 3 7 2 16 -1 19 -3 4 -6 -2 -5 -13z"/>
<path d="M2698 7547 c-12 -29 -10 -73 3 -60 6 6 9 26 7 44 -2 26 -5 30 -10 16z"/>
<path d="M2571 7354 c0 -11 3 -14 6 -6 3 7 2 16 -1 19 -3 4 -6 -2 -5 -13z"/>
<path d="M6095 7540 c-45 -16 -47 -19 -20 -19 17 -1 44 8 60 19 37 24 26 24
-40 0z"/>
<path d="M2480 7363 c0 -35 3 -44 10 -33 13 20 13 67 0 75 -6 4 -10 -12 -10
-42z"/>
<path d="M2371 7194 c0 -11 3 -14 6 -6 3 7 2 16 -1 19 -3 4 -6 -2 -5 -13z"/>
<path d="M6295 7395 l-40 -13 35 -1 c19 0 46 6 60 14 22 12 22 14 5 14 -11 -1
-38 -7 -60 -14z"/>
<path d="M6388 7383 c7 -3 16 -2 19 1 4 3 -2 6 -13 5 -11 0 -14 -3 -6 -6z"/>
<path d="M2312 7270 c0 -14 2 -19 5 -12 2 6 2 18 0 25 -3 6 -5 1 -5 -13z"/>
<path d="M2280 7205 c0 -28 4 -44 10 -40 6 3 10 21 10 40 0 19 -4 37 -10 40
-6 4 -10 -12 -10 -40z"/>
<path d="M2313 7155 c0 -22 2 -30 4 -17 2 12 2 30 0 40 -3 9 -5 -1 -4 -23z"/>
<path d="M2191 7024 c0 -11 3 -14 6 -6 3 7 2 16 -1 19 -3 4 -6 -2 -5 -13z"/>
<path d="M6513 7243 c-13 -2 -23 -9 -23 -14 0 -14 44 -11 66 6 19 14 19 14 -1
13 -11 0 -30 -3 -42 -5z"/>
<path d="M2121 7094 c0 -11 3 -14 6 -6 3 7 2 16 -1 19 -3 4 -6 -2 -5 -13z"/>
<path d="M2099 7013 c3 -41 5 -45 14 -26 5 12 7 33 3 47 -11 43 -21 29 -17
-21z"/>
<path d="M2131 6974 c0 -11 3 -14 6 -6 3 7 2 16 -1 19 -3 4 -6 -2 -5 -13z"/>
<path d="M2021 6834 c0 -11 3 -14 6 -6 3 7 2 16 -1 19 -3 4 -6 -2 -5 -13z"/>
<path d="M6685 7060 c-8 -13 45 -13 65 0 11 7 6 10 -22 10 -20 0 -40 -4 -43
-10z"/>
<path d="M6778 7033 c7 -3 16 -2 19 1 4 3 -2 6 -13 5 -11 0 -14 -3 -6 -6z"/>
<path d="M1924 6851 c3 -18 6 -37 6 -42 0 -5 5 -9 10 -9 15 0 11 43 -7 65 -15
19 -15 18 -9 -14z"/>
<path d="M1772 6629 c7 -24 14 -37 20 -31 10 10 -5 56 -20 66 -6 4 -6 -10 0
-35z"/>
<path d="M6848 6867 c29 -7 49 -7 65 1 18 9 10 11 -43 10 l-65 0 43 -11z"/>
<path d="M6833 6843 c9 -2 25 -2 35 0 9 3 1 5 -18 5 -19 0 -27 -2 -17 -5z"/>
<path d="M6858 6783 c6 -2 18 -2 25 0 6 3 1 5 -13 5 -14 0 -19 -2 -12 -5z"/>
<path d="M6995 6670 c11 -5 38 -8 60 -8 34 0 36 1 15 8 -14 4 -41 8 -60 8 -28
1 -31 -1 -15 -8z"/>
<path d="M6998 6643 c7 -3 16 -2 19 1 4 3 -2 6 -13 5 -11 0 -14 -3 -6 -6z"/>
<path d="M1624 6447 c3 -11 9 -30 12 -43 3 -13 11 -24 16 -24 14 0 0 52 -19
70 -14 13 -15 13 -9 -3z"/>
<path d="M7145 6457 c22 -18 75 -23 75 -7 0 6 -13 10 -29 10 -16 0 -38 3 -48
6 -16 6 -16 5 2 -9z"/>
<path d="M7265 6238 c28 -21 58 -29 73 -19 10 6 3 10 -23 15 -20 4 -44 10 -53
13 -12 4 -12 1 3 -9z"/>
<path d="M1505 6204 c18 -43 23 -50 31 -42 7 7 -22 64 -36 73 -6 4 -4 -10 5
-31z"/>
<path d="M7244 6035 c11 -8 25 -15 30 -15 6 0 2 7 -8 15 -11 8 -25 15 -30 15
-6 0 -2 -7 8 -15z"/>
<path d="M7380 6001 c0 -12 26 -21 58 -20 26 0 25 1 -8 14 -43 17 -50 17 -50
6z"/>
<path d="M1390 5997 c0 -5 8 -22 17 -40 14 -26 18 -29 21 -13 2 10 -5 28 -17
39 -12 12 -21 18 -21 14z"/>
<path d="M7465 5761 c11 -11 34 -23 50 -27 40 -9 23 9 -30 31 -40 16 -40 16
-20 -4z"/>
<path d="M1315 5720 c16 -32 35 -48 35 -30 0 19 -19 47 -35 54 -14 5 -14 2 0
-24z"/>
<path d="M7534 5516 c16 -14 32 -26 35 -27 3 0 14 -2 24 -4 30 -6 19 4 -35 31
l-53 26 29 -26z"/>
<path d="M1236 5537 c3 -10 9 -15 12 -12 3 3 0 11 -7 18 -10 9 -11 8 -5 -6z"/>
<path d="M1238 5485 c7 -11 23 -33 37 -50 l26 -30 -15 35 c-8 19 -24 41 -37
50 -21 14 -22 13 -11 -5z"/>
<path d="M7580 5270 c0 -14 47 -43 61 -38 7 2 -4 14 -24 26 -21 12 -37 17 -37
12z"/>
<path d="M7640 5196 c0 -2 7 -7 16 -10 8 -3 12 -2 9 4 -6 10 -25 14 -25 6z"/>
<path d="M1186 5277 c3 -10 9 -15 12 -12 3 3 0 11 -7 18 -10 9 -11 8 -5 -6z"/>
<path d="M1190 5225 c8 -11 28 -33 43 -50 l28 -30 -18 34 c-10 19 -30 41 -43
50 -24 15 -25 15 -10 -4z"/>
<path d="M7609 5011 c20 -27 57 -49 67 -39 2 3 -17 19 -42 37 l-46 32 21 -30z"/>
<path d="M7660 4946 c0 -2 8 -10 18 -17 15 -13 16 -12 3 4 -13 16 -21 21 -21
13z"/>
<path d="M1150 5016 c0 -2 8 -10 18 -17 15 -13 16 -12 3 4 -13 16 -21 21 -21
13z"/>
<path d="M1196 4929 c38 -38 58 -53 34 -24 -7 8 -10 21 -7 29 4 10 1 13 -9 9
-7 -3 -14 -1 -14 5 0 5 -10 12 -21 15 -18 5 -14 -2 17 -34z"/>
<path d="M1240 4756 c0 -2 8 -10 18 -17 15 -13 16 -12 3 4 -13 16 -21 21 -21
13z"/>
<path d="M7510 4852 c0 -5 7 -15 15 -22 8 -7 15 -8 15 -2 0 5 -7 15 -15 22 -8
7 -15 8 -15 2z"/>
<path d="M7619 4742 c23 -32 47 -49 56 -40 3 3 -14 20 -37 39 l-43 34 24 -33z"/>
<path d="M7590 4736 c0 -2 8 -10 18 -17 15 -13 16 -12 3 4 -13 16 -21 21 -21
13z"/>
<path d="M7660 4676 c0 -2 8 -10 18 -17 15 -13 16 -12 3 4 -13 16 -21 21 -21
13z"/>
<path d="M1148 4658 c6 -7 25 -22 44 -32 33 -20 33 -20 18 0 -21 27 -43 43
-59 44 -10 0 -11 -3 -3 -12z"/>
<path d="M7570 4666 c0 -2 8 -10 18 -17 15 -13 16 -12 3 4 -13 16 -21 21 -21
13z"/>
<path d="M7510 4592 c0 -5 7 -15 15 -22 8 -7 15 -8 15 -2 0 5 -7 15 -15 22 -8
7 -15 8 -15 2z"/>
<path d="M7605 4484 c18 -37 40 -57 55 -52 6 2 -8 21 -30 43 -41 40 -41 40
-25 9z"/>
<path d="M7650 4396 c0 -2 8 -10 18 -17 15 -13 16 -12 3 4 -13 16 -21 21 -21
13z"/>
<path d="M1175 4397 c11 -8 34 -22 50 -32 l30 -19 -29 32 c-17 18 -39 32 -50
32 -20 0 -20 0 -1 -13z"/>
<path d="M7550 4406 c0 -2 8 -10 18 -17 15 -13 16 -12 3 4 -13 16 -21 21 -21
13z"/>
<path d="M7574 4224 c15 -31 43 -60 51 -53 2 3 -12 22 -31 44 -33 37 -34 38
-20 9z"/>
<path d="M1180 4196 c0 -2 7 -7 16 -10 8 -3 12 -2 9 4 -6 10 -25 14 -25 6z"/>
<path d="M1205 4149 c4 -5 25 -19 48 -30 l42 -21 -25 26 c-25 25 -77 46 -65
25z"/>
<path d="M7520 3967 c0 -16 40 -61 47 -53 5 5 -34 66 -43 66 -2 0 -4 -6 -4
-13z"/>
<path d="M7550 3881 c0 -6 4 -13 10 -16 6 -3 7 1 4 9 -7 18 -14 21 -14 7z"/>
<path d="M1255 3902 c6 -6 28 -18 50 -27 40 -16 40 -16 20 3 -11 11 -33 23
-50 26 -20 5 -27 4 -20 -2z"/>
<path d="M7450 3714 c0 -11 12 -31 26 -45 l27 -24 -16 30 c-29 55 -37 63 -37
39z"/>
<path d="M1310 3696 c0 -2 7 -7 16 -10 8 -3 12 -2 9 4 -6 10 -25 14 -25 6z"/>
<path d="M1355 3645 c17 -7 41 -16 55 -20 23 -6 23 -5 -5 14 -16 12 -41 21
-55 20 -24 -1 -24 -1 5 -14z"/>
<path d="M7360 3472 c0 -11 9 -27 20 -37 24 -22 25 -14 5 25 -18 34 -25 38
-25 12z"/>
<path d="M7245 3238 c8 -27 35 -58 35 -41 0 19 -22 63 -32 63 -5 0 -6 -10 -3
-22z"/>
<path d="M1440 3411 c8 -5 31 -12 50 -15 33 -7 34 -6 16 9 -11 8 -34 15 -50
15 -22 -1 -27 -3 -16 -9z"/>
<path d="M7117 3043 c-8 -13 7 -58 22 -68 14 -8 13 1 -3 44 -7 20 -15 30 -19
24z"/>
<path d="M7121 2934 c0 -11 3 -14 6 -6 3 7 2 16 -1 19 -3 4 -6 -2 -5 -13z"/>
<path d="M1560 3181 c8 -5 32 -11 54 -14 35 -6 37 -5 20 8 -11 8 -35 14 -54
14 -24 0 -30 -2 -20 -8z"/>
<path d="M1748 3043 c7 -3 16 -2 19 1 4 3 -2 6 -13 5 -11 0 -14 -3 -6 -6z"/>
<path d="M6971 2830 c0 -19 6 -46 14 -60 13 -22 14 -23 14 -5 0 11 -6 38 -14
60 l-13 40 -1 -35z"/>
<path d="M1658 2993 c7 -3 16 -2 19 1 4 3 -2 6 -13 5 -11 0 -14 -3 -6 -6z"/>
<path d="M1695 2960 c3 -5 25 -10 48 -10 31 0 38 3 27 10 -20 13 -83 13 -75 0z"/>
<path d="M6891 2794 c0 -11 3 -14 6 -6 3 7 2 16 -1 19 -3 4 -6 -2 -5 -13z"/>
<path d="M6810 2611 c0 -16 5 -33 10 -36 6 -4 10 6 10 24 0 16 -4 33 -10 36
-6 4 -10 -6 -10 -24z"/>
<path d="M6802 2530 c0 -14 2 -19 5 -12 2 6 2 18 0 25 -3 6 -5 1 -5 -13z"/>
<path d="M1808 2783 c7 -3 16 -2 19 1 4 3 -2 6 -13 5 -11 0 -14 -3 -6 -6z"/>
<path d="M1938 2773 c6 -2 18 -2 25 0 6 3 1 5 -13 5 -14 0 -19 -2 -12 -5z"/>
<path d="M1862 2749 c18 -7 33 -7 45 0 14 8 9 10 -27 10 -42 -1 -43 -1 -18
-10z"/>
<path d="M6731 2594 c0 -11 3 -14 6 -6 3 7 2 16 -1 19 -3 4 -6 -2 -5 -13z"/>
<path d="M6612 2465 c0 -16 2 -22 5 -12 2 9 2 23 0 30 -3 6 -5 -1 -5 -18z"/>
<path d="M6636 2445 c-7 -29 0 -65 14 -65 7 0 2 79 -5 88 -2 2 -6 -9 -9 -23z"/>
<path d="M6622 2350 c0 -14 2 -19 5 -12 2 6 2 18 0 25 -3 6 -5 1 -5 -13z"/>
<path d="M1968 2583 c6 -2 18 -2 25 0 6 3 1 5 -13 5 -14 0 -19 -2 -12 -5z"/>
<path d="M2020 2560 c-11 -7 3 -9 45 -9 45 1 54 3 35 9 -35 11 -63 11 -80 0z"/>
<path d="M6552 2420 c0 -14 2 -19 5 -12 2 6 2 18 0 25 -3 6 -5 1 -5 -13z"/>
<path d="M6444 2256 c-3 -19 -1 -43 5 -53 8 -14 10 -8 11 35 0 60 -6 67 -16
18z"/>
<path d="M6422 2170 c0 -14 2 -19 5 -12 2 6 2 18 0 25 -3 6 -5 1 -5 -13z"/>
<path d="M2148 2393 c6 -2 18 -2 25 0 6 3 1 5 -13 5 -14 0 -19 -2 -12 -5z"/>
<path d="M2210 2380 c-12 -7 -8 -10 15 -10 17 0 37 5 45 10 12 7 8 10 -15 10
-16 0 -37 -5 -45 -10z"/>
<path d="M6361 2254 c0 -11 3 -14 6 -6 3 7 2 16 -1 19 -3 4 -6 -2 -5 -13z"/>
<path d="M6246 2124 c-9 -24 -7 -62 4 -69 6 -4 10 12 10 39 0 48 -4 56 -14 30z"/>
<path d="M6211 2024 c0 -11 3 -14 6 -6 3 7 2 16 -1 19 -3 4 -6 -2 -5 -13z"/>
<path d="M2348 2223 c7 -3 16 -2 19 1 4 3 -2 6 -13 5 -11 0 -14 -3 -6 -6z"/>
<path d="M2411 2219 c-13 -5 -21 -12 -18 -15 8 -9 77 7 71 17 -6 11 -22 11
-53 -2z"/>
<path d="M6161 2104 c0 -11 3 -14 6 -6 3 7 2 16 -1 19 -3 4 -6 -2 -5 -13z"/>
<path d="M6031 1972 c-7 -18 -10 -40 -6 -49 6 -14 10 -9 17 21 11 52 5 68 -11
28z"/>
<path d="M2568 2073 c7 -3 16 -2 19 1 4 3 -2 6 -13 5 -11 0 -14 -3 -6 -6z"/>
<path d="M2616 2065 c-26 -20 -4 -20 49 0 l40 14 -35 0 c-19 0 -44 -6 -54 -14z"/>
<path d="M2830 2020 c-8 -5 -10 -10 -5 -10 6 0 17 5 25 10 8 5 11 10 5 10 -5
0 -17 -5 -25 -10z"/>
<path d="M5812 1860 c-7 -11 -12 -32 -11 -47 1 -24 3 -21 15 16 15 50 14 60
-4 31z"/>
<path d="M2839 1930 c-31 -25 -22 -25 32 0 38 17 40 20 18 20 -15 0 -37 -9
-50 -20z"/>
<path d="M5630 1901 c-6 -12 -7 -21 -1 -21 10 0 24 30 17 37 -2 3 -9 -5 -16
-16z"/>
<path d="M5721 1854 c0 -11 3 -14 6 -6 3 7 2 16 -1 19 -3 4 -6 -2 -5 -13z"/>
<path d="M5575 1747 c-9 -18 -15 -42 -13 -52 3 -14 9 -5 21 29 20 59 17 69 -8
23z"/>
<path d="M5525 1679 c-4 -6 -5 -12 -2 -15 2 -3 7 2 10 11 7 17 1 20 -8 4z"/>
<path d="M3059 1810 c-30 -25 -14 -25 31 0 28 16 31 19 14 20 -12 0 -32 -9
-45 -20z"/>
<path d="M3000 1810 c-8 -5 -10 -10 -5 -10 6 0 17 5 25 10 8 5 11 10 5 10 -5
0 -17 -5 -25 -10z"/>
<path d="M3275 1800 c-3 -6 1 -7 9 -4 18 7 21 14 7 14 -6 0 -13 -4 -16 -10z"/>
<path d="M5341 1676 c-15 -17 -35 -84 -21 -70 10 10 42 84 36 84 -2 0 -9 -6
-15 -14z"/>
<path d="M5276 1593 c-6 -14 -5 -15 5 -6 7 7 10 15 7 18 -3 3 -9 -2 -12 -12z"/>
<path d="M3300 1720 c-38 -29 -19 -32 25 -5 30 18 35 24 20 24 -11 1 -31 -8
-45 -19z"/>
<path d="M3510 1720 c-9 -6 -10 -10 -3 -10 6 0 15 5 18 10 8 12 4 12 -15 0z"/>
<path d="M3240 1710 c-9 -6 -10 -10 -3 -10 6 0 15 5 18 10 8 12 4 12 -15 0z"/>
<path d="M5096 1611 c-15 -17 -40 -81 -30 -81 2 0 15 23 29 50 27 54 28 60 1
31z"/>
<path d="M3573 1655 c-18 -8 -33 -19 -33 -25 0 -12 20 -3 55 24 25 19 19 19
-22 1z"/>
<path d="M4849 1567 c-25 -19 -52 -76 -30 -63 8 5 54 76 48 76 -1 0 -9 -6 -18
-13z"/>
<path d="M4769 1493 c-13 -16 -12 -17 4 -4 16 13 21 21 13 21 -2 0 -10 -8 -17
-17z"/>
<path d="M4009 1613 c-13 -16 -12 -17 4 -4 16 13 21 21 13 21 -2 0 -10 -8 -17
-17z"/>
<path d="M3829 1600 c-20 -11 -39 -26 -42 -35 -10 -23 4 -17 47 20 45 40 45
41 -5 15z"/>
<path d="M4088 1564 c-27 -14 -57 -54 -40 -54 4 0 23 16 42 35 38 39 37 41 -2
19z"/>
<path d="M3999 1513 c-13 -16 -12 -17 4 -4 16 13 21 21 13 21 -2 0 -10 -8 -17
-17z"/>
<path d="M4760 1590 c-6 -11 -8 -20 -6 -20 3 0 10 9 16 20 6 11 8 20 6 20 -3
0 -10 -9 -16 -20z"/>
<path d="M4599 1547 c-21 -16 -53 -66 -46 -73 3 -3 19 15 37 40 33 49 34 52 9
33z"/>
<path d="M4509 1473 c-13 -16 -12 -17 4 -4 9 7 17 15 17 17 0 8 -8 3 -21 -13z"/>
<path d="M4348 1550 c-14 -11 -28 -29 -31 -40 -5 -18 -3 -19 9 -9 17 14 58 69
51 69 -2 0 -16 -9 -29 -20z"/>
<path d="M4269 1493 c-13 -16 -12 -17 4 -4 9 7 17 15 17 17 0 8 -8 3 -21 -13z"/>
</g>
</svg>
